<svg width="49" height="50" viewBox="0 0 49 50" fill="none" xmlns="http://www.w3.org/2000/svg">
<path fill-rule="evenodd" clip-rule="evenodd" d="M7.35034 7.08257L24.1265 23.3425L16.6171 1.33213C16.7296 1.29338 16.8425 1.25542 16.9557 1.21827L22.3659 0.0989104C22.951 0.0452512 23.542 0.0120408 24.1382 0L25.13 22.5643L35.1486 2.3385C36.5828 3.01508 37.9411 3.82591 39.2074 4.75479L27.7585 22.5643L46.5337 13.3018C47.7387 15.623 48.5852 18.1602 49 20.84L27.7585 24.3802L48.8782 29.1573C48.5603 30.8738 48.0645 32.5279 47.4106 34.0997L27.7585 25.6774L40.7694 43.2804C39.0615 44.7591 37.1482 46.007 35.0782 46.9755L26.7208 26.7151L23.3911 49.2547C22.4445 49.2072 21.5121 49.1064 20.5966 48.9551L19.7162 48.7664L25.1642 26.7151L8.42742 43.1983C6.14431 41.2014 4.23298 38.79 2.81085 36.0815L24.1265 25.6774H0.0214182C0.00718624 25.3335 0 24.9878 0 24.6405C0 23.3447 0.099998 22.0723 0.292698 20.8305L24.1265 24.3802L3.60026 11.8079C4.65525 10.0814 5.91673 8.49488 7.35034 7.08257Z" fill="url(#paint0_radial_1_568)" fill-opacity="0.5"/>
<g filter="url(#filter0_d_1_568)">
<path fill-rule="evenodd" clip-rule="evenodd" d="M15.3715 17.2613V17.2612C15.3715 14.3555 18.4848 12 22.3253 12C26.1657 12 29.279 14.3555 29.2791 17.2612V17.2613V18.0659C29.6414 18.6123 29.8817 19.2131 29.9729 19.8477C31.1064 19.2409 32.4905 18.8843 33.9847 18.8843C37.8252 18.8843 40.9385 21.2399 40.9385 24.1456L40.9385 24.1456V24.9882C41.6109 25.798 41.9998 26.7562 41.9998 27.7831V29.9673C41.9998 32.8693 38.8896 35.2262 35.0516 35.2285L35.046 35.2285C32.1936 35.2285 29.7425 33.9291 28.6699 32.0702C27.4839 33.2932 25.6158 34.1129 23.4894 34.2108C23.3464 34.2174 23.2033 34.2207 23.0601 34.2206C22.8201 34.2206 22.5829 34.2114 22.3491 34.1934C21.7537 34.1477 21.1804 34.0451 20.639 33.893C20.4719 34.1178 20.2944 34.3347 20.1072 34.5432C17.5471 37.4059 13.7158 38.156 11.5497 36.219L9.922 34.7629L9.92291 34.7619L9.92142 34.7606C7.75562 32.8235 8.07542 28.9326 10.6357 26.07C11.4378 25.1732 12.3647 24.4837 13.3261 24.0193L15.3715 17.2613ZM15.5 20.4573C15.4157 20.1299 15.3715 19.7915 15.3715 19.4454V17.2613L13.7285 23.8387C14.2769 23.6115 14.8323 23.4571 15.3783 23.3787C15.4163 22.7242 15.6125 22.1007 15.9385 21.5296C15.7518 21.2025 15.6077 20.8582 15.5115 20.5008L15.5 20.5V20.4573Z" fill="#E86124"/>
<path d="M15.3715 17.2612L14.8715 17.2612V17.2612H15.3715ZM29.2791 17.2612H29.7791V17.2612L29.2791 17.2612ZM29.2791 18.0659H28.7791V18.2167L28.8624 18.3423L29.2791 18.0659ZM29.9729 19.8477L29.478 19.9188L29.5795 20.6254L30.2089 20.2885L29.9729 19.8477ZM40.9385 24.1456H40.4385V24.5305L40.8105 24.629L40.9385 24.1456ZM40.9385 24.1456H41.4385V23.7608L41.0665 23.6623L40.9385 24.1456ZM40.9385 24.9882H40.4385V25.1687L40.5539 25.3076L40.9385 24.9882ZM35.0516 35.2285L35.0518 35.7285H35.0519L35.0516 35.2285ZM35.046 35.2285V35.7285H35.0461L35.046 35.2285ZM28.6699 32.0702L29.103 31.8203L28.772 31.2467L28.311 31.7221L28.6699 32.0702ZM23.4894 34.2108L23.4664 33.7113L23.4662 33.7113L23.4894 34.2108ZM23.0601 34.2206L23.0604 33.7206H23.0601V34.2206ZM22.3491 34.1934L22.3874 33.6949H22.3874L22.3491 34.1934ZM20.639 33.893L20.7743 33.4116L20.443 33.3186L20.2378 33.5947L20.639 33.893ZM20.1072 34.5432L19.7352 34.2091L19.7345 34.2099L20.1072 34.5432ZM11.5497 36.219L11.2164 36.5917L11.2164 36.5917L11.5497 36.219ZM9.922 34.7629L9.54897 34.43L9.2164 34.8026L9.58864 35.1356L9.922 34.7629ZM9.92291 34.7619L10.2959 35.0949L10.6287 34.7221L10.2561 34.3891L9.92291 34.7619ZM9.92142 34.7606L9.58809 35.1333L9.58824 35.1334L9.92142 34.7606ZM10.6357 26.07L11.0084 26.4034L10.6357 26.07ZM13.3261 24.0193L13.5436 24.4695L13.7411 24.374L13.8046 24.1641L13.3261 24.0193ZM15.5 20.4573H16V20.394L15.9842 20.3326L15.5 20.4573ZM13.7285 23.8387L13.2434 23.7176L13.0028 24.6807L13.9199 24.3007L13.7285 23.8387ZM15.3783 23.3787L15.4493 23.8737L15.8537 23.8156L15.8774 23.4078L15.3783 23.3787ZM15.9385 21.5296L16.3727 21.7774L16.5143 21.5295L16.3727 21.2816L15.9385 21.5296ZM15.5115 20.5008L15.9943 20.3708L15.9018 20.0274L15.5471 20.0021L15.5115 20.5008ZM15.5 20.5H15V20.9655L15.4644 20.9987L15.5 20.5ZM14.8715 17.2612V17.2613H15.8715V17.2612H14.8715ZM22.3253 11.5C20.3063 11.5 18.4595 12.1186 17.1065 13.1422C15.7532 14.1661 14.8715 15.6176 14.8715 17.2612L15.8715 17.2612C15.8715 15.9992 16.5464 14.82 17.7099 13.9397C18.8737 13.0592 20.5038 12.5 22.3253 12.5V11.5ZM29.7791 17.2612C29.779 15.6176 28.8973 14.1661 27.544 13.1422C26.191 12.1186 24.3442 11.5 22.3253 11.5V12.5C24.1467 12.5 25.7769 13.0592 26.9406 13.9397C28.1041 14.82 28.779 15.9992 28.7791 17.2612L29.7791 17.2612ZM29.7791 17.2613V17.2612H28.7791V17.2613H29.7791ZM29.7791 18.0659V17.2613H28.7791V18.0659H29.7791ZM30.4678 19.7766C30.3652 19.0623 30.0954 18.3922 29.6957 17.7896L28.8624 18.3423C29.1875 18.8324 29.3983 19.3638 29.478 19.9188L30.4678 19.7766ZM33.9847 18.3843C32.4122 18.3843 30.9465 18.7593 29.7369 19.4069L30.2089 20.2885C31.2663 19.7224 32.5688 19.3843 33.9847 19.3843V18.3843ZM41.4385 24.1456C41.4385 22.502 40.5567 21.0505 39.2034 20.0266C37.8504 19.0029 36.0037 18.3843 33.9847 18.3843V19.3843C35.8062 19.3843 37.4363 19.9435 38.6001 20.8241C39.7636 21.7044 40.4385 22.8835 40.4385 24.1456H41.4385ZM41.0665 23.6623L41.0664 23.6623L40.8105 24.629L40.8106 24.629L41.0665 23.6623ZM41.4385 24.9882V24.1456H40.4385V24.9882H41.4385ZM42.4998 27.7831C42.4998 26.6243 42.0598 25.5559 41.3232 24.6688L40.5539 25.3076C41.1621 26.0402 41.4998 26.8881 41.4998 27.7831H42.4998ZM42.4998 29.9673V27.7831H41.4998V29.9673H42.4998ZM35.0519 35.7285C37.0697 35.7273 38.915 35.1077 40.2668 34.0839C41.6189 33.0599 42.4998 31.609 42.4998 29.9673H41.4998C41.4998 31.2276 40.8256 32.4062 39.663 33.2867C38.5003 34.1674 36.8715 34.7274 35.0513 34.7285L35.0519 35.7285ZM35.0461 35.7285L35.0518 35.7285L35.0514 34.7285L35.0458 34.7285L35.0461 35.7285ZM28.2368 32.3201C29.4192 34.3693 32.0602 35.7285 35.046 35.7285V34.7285C32.327 34.7285 30.0658 33.4889 29.103 31.8203L28.2368 32.3201ZM23.5124 34.7102C25.7469 34.6074 27.7417 33.7455 29.0288 32.4183L28.311 31.7221C27.226 32.8409 25.4847 33.6184 23.4664 33.7113L23.5124 34.7102ZM23.0598 34.7206C23.2108 34.7207 23.3618 34.7172 23.5127 34.7102L23.4662 33.7113C23.331 33.7176 23.1958 33.7207 23.0604 33.7206L23.0598 34.7206ZM22.3108 34.692C22.5573 34.7109 22.8073 34.7206 23.0601 34.7206V33.7206C22.8329 33.7206 22.6084 33.7119 22.3874 33.6949L22.3108 34.692ZM20.5037 34.3743C21.0772 34.5355 21.683 34.6437 22.3108 34.692L22.3874 33.6949C21.8244 33.6517 21.2836 33.5548 20.7743 33.4116L20.5037 34.3743ZM20.4792 34.8773C20.6767 34.6574 20.8639 34.4285 21.0402 34.1913L20.2378 33.5947C20.0798 33.8071 19.9121 34.0121 19.7352 34.2091L20.4792 34.8773ZM11.2164 36.5917C12.4417 37.6874 14.1114 37.9978 15.7768 37.6717C17.4418 37.3457 19.134 36.3815 20.4799 34.8765L19.7345 34.2099C18.5203 35.5676 17.0168 36.4099 15.5846 36.6903C14.1528 36.9707 12.8239 36.6877 11.883 35.8463L11.2164 36.5917ZM9.58864 35.1356L11.2164 36.5917L11.8831 35.8464L10.2554 34.3903L9.58864 35.1356ZM9.54988 34.429L9.54897 34.43L10.295 35.0959L10.2959 35.0949L9.54988 34.429ZM9.58824 35.1334L9.58973 35.1348L10.2561 34.3891L10.2546 34.3878L9.58824 35.1334ZM10.263 25.7367C8.91705 27.2416 8.14694 29.0305 8.00796 30.7214C7.86895 32.4127 8.36299 34.0375 9.58809 35.1333L10.2548 34.3879C9.31405 33.5465 8.88509 32.2574 9.0046 30.8033C9.12414 29.3489 9.79408 27.761 11.0084 26.4034L10.263 25.7367ZM13.1085 23.5691C12.0867 24.0628 11.1075 24.7926 10.263 25.7367L11.0084 26.4034C11.7682 25.5539 12.6428 24.9047 13.5436 24.4695L13.1085 23.5691ZM14.8929 17.1164L12.8475 23.8744L13.8046 24.1641L15.85 17.4061L14.8929 17.1164ZM14.8715 19.4454C14.8715 19.8344 14.9212 20.2146 15.0158 20.582L15.9842 20.3326C15.9101 20.0451 15.8715 19.7487 15.8715 19.4454H14.8715ZM14.8715 17.2613V19.4454H15.8715V17.2613H14.8715ZM14.2136 23.9599L15.8566 17.3824L14.8864 17.1401L13.2434 23.7176L14.2136 23.9599ZM15.3072 22.8838C14.7172 22.9685 14.1215 23.1347 13.5371 23.3768L13.9199 24.3007C14.4322 24.0884 14.9473 23.9457 15.4493 23.8737L15.3072 22.8838ZM15.5043 21.2817C15.1429 21.9146 14.922 22.6125 14.8791 23.3497L15.8774 23.4078C15.9107 22.8358 16.082 22.2867 16.3727 21.7774L15.5043 21.2817ZM15.0286 20.6308C15.1365 21.0316 15.2975 21.4153 15.5043 21.7775L16.3727 21.2816C16.206 20.9897 16.0788 20.6849 15.9943 20.3708L15.0286 20.6308ZM15.5471 20.0021L15.5356 20.0013L15.4644 20.9987L15.4758 20.9995L15.5471 20.0021ZM16 20.5V20.4573H15V20.5H16Z" fill="white"/>
</g>
<path fill-rule="evenodd" clip-rule="evenodd" d="M7.35034 7.08257L24.1265 23.3425L16.6171 1.33213C16.7296 1.29338 16.8425 1.25542 16.9557 1.21827L22.3659 0.0989104C22.951 0.0452512 23.542 0.0120408 24.1382 0L25.13 22.5643L35.1486 2.3385C36.5828 3.01508 37.9411 3.82591 39.2074 4.75479L27.7585 22.5643L46.5337 13.3018C47.7387 15.623 48.5852 18.1602 49 20.84L27.7585 24.3802L48.8782 29.1573C48.5603 30.8738 48.0645 32.5279 47.4106 34.0997L27.7585 25.6774L40.7694 43.2804C39.0615 44.7591 37.1482 46.007 35.0782 46.9755L26.7208 26.7151L23.3911 49.2547C22.4445 49.2072 21.5121 49.1064 20.5966 48.9551L19.7162 48.7664L25.1642 26.7151L8.42742 43.1983C6.14431 41.2014 4.23298 38.79 2.81085 36.0815L24.1265 25.6774H0.0214182C0.00718624 25.3335 0 24.9878 0 24.6405C0 23.3447 0.099998 22.0723 0.292698 20.8305L24.1265 24.3802L3.60026 11.8079C4.65525 10.0814 5.91673 8.49488 7.35034 7.08257Z" fill="url(#paint1_radial_1_568)" fill-opacity="0.5"/>
<path d="M30.0133 28.9593V26.7759H29.3875C28.2914 24.9604 25.8702 23.6987 23.0602 23.6987C20.2502 23.6987 17.8283 24.9604 16.7322 26.7759H16.1064V28.9593C16.1064 31.8655 19.2196 34.2206 23.0602 34.2206C26.9008 34.2206 30.0133 31.8688 30.0133 28.9593Z" fill="#E86124"/>
<path d="M18.1609 28.9593V26.7759H18.7868C19.7473 25.1855 21.7257 24.0207 24.0875 23.7555C23.7463 23.7176 23.4034 23.6986 23.0602 23.6987C20.2495 23.6987 17.8283 24.9604 16.7322 26.7759H16.1064V28.9593C16.1064 31.8655 19.2196 34.2206 23.0602 34.2206C23.4034 34.2208 23.7464 34.2016 24.0875 34.1631C20.7338 33.7878 18.1609 31.6016 18.1609 28.9593Z" fill="#DC4A26"/>
<path d="M23.0602 32.0372C26.9007 32.0372 30.014 29.6816 30.014 26.7759C30.014 23.8702 26.9007 21.5146 23.0602 21.5146C19.2197 21.5146 16.1064 23.8702 16.1064 26.7759C16.1064 29.6816 19.2197 32.0372 23.0602 32.0372Z" fill="#F0E92D"/>
<path d="M23.0604 30.5831C25.8396 30.5831 28.0925 28.8785 28.0925 26.7759C28.0925 24.6732 25.8396 22.9687 23.0604 22.9687C20.2812 22.9687 18.0282 24.6732 18.0282 26.7759C18.0282 28.8785 20.2812 30.5831 23.0604 30.5831Z" fill="#EF8521"/>
<path d="M19.5043 27.4358C19.5043 25.3151 21.1073 23.5284 23.2901 22.9727C23.2139 22.9727 23.1371 22.968 23.0603 22.968C20.2804 22.968 18.0275 24.6726 18.0275 26.7752C18.0275 28.1284 18.9626 29.3133 20.3652 29.9913C19.8094 29.255 19.5073 28.3583 19.5043 27.4358Z" fill="#E86124"/>
<path d="M29.2793 25.798V23.6139H28.6534C27.5567 21.7985 25.1361 20.5368 22.3255 20.5368C19.5149 20.5368 17.0943 21.7985 15.9976 23.6139H15.3717V25.798C15.3717 28.7035 18.4849 31.0593 22.3255 31.0593C26.1661 31.0593 29.2793 28.7035 29.2793 25.798Z" fill="#E86124"/>
<path d="M17.4269 25.798V23.6139H18.0528C19.0126 22.0242 20.9916 20.8594 23.3528 20.5942C23.0117 20.556 22.6687 20.5369 22.3255 20.5368C19.5149 20.5368 17.0943 21.7985 15.9976 23.6139H15.3717V25.798C15.3717 28.7035 18.4849 31.0593 22.3255 31.0593C22.6687 31.0592 23.0117 31.04 23.3528 31.0019C19.9998 30.6265 17.4269 28.4397 17.4269 25.798Z" fill="#DC4A26"/>
<path d="M22.3255 28.8752C26.166 28.8752 29.2793 26.5196 29.2793 23.6139C29.2793 20.7082 26.166 18.3526 22.3255 18.3526C18.485 18.3526 15.3717 20.7082 15.3717 23.6139C15.3717 26.5196 18.485 28.8752 22.3255 28.8752Z" fill="#F0E92D"/>
<path d="M22.3254 27.4211C25.1046 27.4211 27.3576 25.7166 27.3576 23.6139C27.3576 21.5113 25.1046 19.8067 22.3254 19.8067C19.5463 19.8067 17.2933 21.5113 17.2933 23.6139C17.2933 25.7166 19.5463 27.4211 22.3254 27.4211Z" fill="#EF8521"/>
<path d="M18.7701 24.2745C18.7701 22.1538 20.3731 20.3671 22.5559 19.8114C22.4791 19.8114 22.4029 19.8067 22.3254 19.8067C19.5462 19.8067 17.2933 21.5113 17.2933 23.6139C17.2933 24.9671 18.2284 26.152 19.631 26.83C19.0747 26.0939 18.7726 25.1971 18.7701 24.2745Z" fill="#E86124"/>
<path d="M30.0133 22.6067V20.4226H29.3875C28.2914 18.6072 25.8702 17.3454 23.0602 17.3454C20.2502 17.3454 17.8283 18.6072 16.7322 20.4226H16.1064V22.6067C16.1064 25.5122 19.2196 27.8673 23.0602 27.8673C26.9008 27.8673 30.0133 25.5122 30.0133 22.6067Z" fill="#E86124"/>
<path d="M18.1609 22.6067V20.4226H18.7868C19.7473 18.8323 21.7257 17.6674 24.0875 17.4029C23.7464 17.3644 23.4034 17.3452 23.0602 17.3454C20.2495 17.3454 17.8283 18.6072 16.7322 20.4226H16.1064V22.6067C16.1064 25.5122 19.2196 27.8673 23.0602 27.8673C23.4034 27.8674 23.7463 27.8485 24.0875 27.8105C20.7338 27.4345 18.1609 25.2477 18.1609 22.6067Z" fill="#DC4A26"/>
<path d="M23.0602 25.6838C26.9007 25.6838 30.014 23.3283 30.014 20.4225C30.014 17.5168 26.9007 15.1613 23.0602 15.1613C19.2197 15.1613 16.1064 17.5168 16.1064 20.4225C16.1064 23.3283 19.2197 25.6838 23.0602 25.6838Z" fill="#F0E92D"/>
<path d="M23.0604 24.2297C25.8396 24.2297 28.0925 22.5252 28.0925 20.4225C28.0925 18.3199 25.8396 16.6154 23.0604 16.6154C20.2812 16.6154 18.0282 18.3199 18.0282 20.4225C18.0282 22.5252 20.2812 24.2297 23.0604 24.2297Z" fill="#EF8521"/>
<path d="M19.5043 21.0825C19.5043 18.9625 21.1073 17.1751 23.2901 16.6194C23.2139 16.6194 23.1371 16.6154 23.0603 16.6154C20.2804 16.6154 18.0275 18.3199 18.0275 20.4225C18.0275 21.7758 18.9626 22.9607 20.3652 23.6386C19.8092 22.9021 19.5071 22.0052 19.5043 21.0825Z" fill="#E86124"/>
<path d="M29.2793 19.4454V17.2612H28.6534C27.5567 15.4458 25.1361 14.1841 22.3255 14.1841C19.5149 14.1841 17.0943 15.4458 15.9976 17.2612H15.3717V19.4454C15.3717 22.3508 18.4849 24.706 22.3255 24.706C26.1661 24.706 29.2793 22.3508 29.2793 19.4454Z" fill="#E86124"/>
<path d="M17.4269 19.4454V17.2612H18.0528C19.0126 15.6709 20.9916 14.506 23.3528 14.2409C23.0117 14.2029 22.6687 14.184 22.3255 14.1841C19.5149 14.1841 17.0943 15.4458 15.9976 17.2612H15.3717V19.4454C15.3717 22.3508 18.4849 24.706 22.3255 24.706C22.6687 24.7062 23.0117 24.687 23.3528 24.6485C19.9998 24.2731 17.4269 22.0863 17.4269 19.4454Z" fill="#DC4A26"/>
<path d="M22.3255 22.5225C26.166 22.5225 29.2793 20.167 29.2793 17.2613C29.2793 14.3555 26.166 12 22.3255 12C18.485 12 15.3717 14.3555 15.3717 17.2613C15.3717 20.167 18.485 22.5225 22.3255 22.5225Z" fill="#F0E92D"/>
<path d="M22.3254 21.0684C25.1046 21.0684 27.3576 19.3639 27.3576 17.2612C27.3576 15.1586 25.1046 13.454 22.3254 13.454C19.5463 13.454 17.2933 15.1586 17.2933 17.2612C17.2933 19.3639 19.5463 21.0684 22.3254 21.0684Z" fill="#EF8521"/>
<path d="M18.7701 17.9212C18.7701 15.8005 20.3731 14.0138 22.5559 13.4581C22.4791 13.4581 22.4029 13.4534 22.3254 13.4534C19.5462 13.4534 17.2933 15.158 17.2933 17.2606C17.2933 18.6138 18.2284 19.7987 19.631 20.4767C19.0749 19.7405 18.7728 18.8438 18.7701 17.9212Z" fill="#E86124"/>
<path d="M41.9999 29.9673V27.7831H41.3741C40.2774 25.9677 37.8568 24.706 35.0461 24.706C32.2355 24.706 29.8143 25.9677 28.7182 27.7831H28.0923V29.9673C28.0923 32.8727 31.2056 35.2285 35.0461 35.2285C38.8867 35.2285 41.9999 32.8707 41.9999 29.9673Z" fill="#E86124"/>
<path d="M30.1469 29.9673V27.7831H30.7727C31.7332 26.1935 33.7116 25.0279 36.0734 24.7634C35.7323 24.7249 35.3894 24.7058 35.0461 24.706C32.2355 24.706 29.8143 25.9677 28.7182 27.7831H28.0923V29.9673C28.0923 32.8727 31.2056 35.2285 35.0461 35.2285C35.3894 35.2284 35.7323 35.2092 36.0734 35.1711C32.7204 34.795 30.1469 32.6089 30.1469 29.9673Z" fill="#DC4A26"/>
<path d="M35.0461 33.0444C38.8866 33.0444 41.9999 30.6888 41.9999 27.7831C41.9999 24.8774 38.8866 22.5219 35.0461 22.5219C31.2057 22.5219 28.0923 24.8774 28.0923 27.7831C28.0923 30.6888 31.2057 33.0444 35.0461 33.0444Z" fill="#F0E92D"/>
<path d="M35.0463 31.5903C37.8255 31.5903 40.0784 29.8858 40.0784 27.7831C40.0784 25.6805 37.8255 23.9759 35.0463 23.9759C32.2671 23.9759 30.0141 25.6805 30.0141 27.7831C30.0141 29.8858 32.2671 31.5903 35.0463 31.5903Z" fill="#EF8521"/>
<path d="M31.4902 28.443C31.4902 26.323 33.0932 24.5357 35.276 23.98C35.1999 23.98 35.1231 23.9759 35.0463 23.9759C32.267 23.9759 30.0134 25.6805 30.0134 27.7831C30.0134 29.1364 30.9485 30.3213 32.3512 30.9992C31.7951 30.2628 31.493 29.3658 31.4902 28.443Z" fill="#E86124"/>
<path d="M40.9387 26.3297V24.1456H40.3128C39.2167 22.3302 36.7955 21.0685 33.9849 21.0685C31.1742 21.0685 28.7537 22.3302 27.6576 24.1456H27.0317V26.3297C27.0317 29.2352 30.145 31.5903 33.9849 31.5903C37.8248 31.5903 40.9387 29.2352 40.9387 26.3297Z" fill="#E86124"/>
<path d="M29.0863 26.3297V24.1456H29.7101C30.6706 22.5553 32.649 21.3904 35.0108 21.1252C34.6701 21.0874 34.3276 21.0684 33.9849 21.0685C31.1749 21.0685 28.7537 22.3302 27.6576 24.1456H27.0317V26.3297C27.0317 29.2352 30.145 31.5903 33.9849 31.5903C34.3283 31.5904 34.6715 31.5715 35.0128 31.5335C31.6591 31.1575 29.0863 28.9707 29.0863 26.3297Z" fill="#DC4A26"/>
<path d="M33.9849 29.4069C37.8253 29.4069 40.9387 27.0513 40.9387 24.1456C40.9387 21.2399 37.8253 18.8843 33.9849 18.8843C30.1444 18.8843 27.0311 21.2399 27.0311 24.1456C27.0311 27.0513 30.1444 29.4069 33.9849 29.4069Z" fill="#F0E92D"/>
<path d="M33.9848 27.9528C36.764 27.9528 39.017 26.2483 39.017 24.1456C39.017 22.0429 36.764 20.3384 33.9848 20.3384C31.2056 20.3384 28.9526 22.0429 28.9526 24.1456C28.9526 26.2483 31.2056 27.9528 33.9848 27.9528Z" fill="#EF8521"/>
<path d="M30.4294 24.8055C30.4294 22.6855 32.0325 20.8981 34.2152 20.3424C34.1391 20.3397 34.0623 20.3384 33.9848 20.3384C31.2056 20.3384 28.9526 22.043 28.9526 24.1456C28.9526 25.4988 29.8877 26.6837 31.2904 27.3617C30.7344 26.6252 30.4323 25.7283 30.4294 24.8055Z" fill="#E86124"/>
<path d="M20.8214 25.8502L19.1936 24.3941L18.7762 24.8616C16.6922 24.4682 14.1381 25.4321 12.2645 27.5267C10.391 29.6213 9.71707 32.2696 10.3402 34.2941L9.92279 34.7617L11.5505 36.2178C13.7166 38.1547 17.5479 37.4047 20.108 34.5419C22.6682 31.6792 22.9875 27.7872 20.8214 25.8502Z" fill="#E86124"/>
<path d="M12.9198 34.6848L11.292 33.2287L11.7095 32.7612C11.1645 30.9852 11.6133 28.7356 12.9919 26.7973C12.7359 27.0267 12.493 27.2704 12.2645 27.5273C10.3943 29.6226 9.71707 32.2696 10.3396 34.2954L9.92212 34.763L11.5499 36.2191C13.7159 38.1561 17.5472 37.406 20.1073 34.5432C20.3362 34.2884 20.5505 34.0208 20.7492 33.7417C18.2338 35.9853 14.8888 36.4462 12.9198 34.6848Z" fill="#DC4A26"/>
<path d="M18.4789 33.085C21.0392 30.2225 21.359 26.3316 19.1932 24.3944C17.0274 22.4573 13.1961 23.2075 10.6358 26.07C8.07553 28.9326 7.75573 32.8235 9.92154 34.7606C12.0873 36.6977 15.9186 35.9476 18.4789 33.085Z" fill="#F0E92D"/>
<path d="M17.3951 32.1157C19.2479 30.0442 19.4794 27.2286 17.9122 25.8268C16.3449 24.4251 13.5725 24.968 11.7197 27.0395C9.86691 29.111 9.63542 31.9266 11.2027 33.3284C12.7699 34.7301 15.5424 34.1872 17.3951 32.1157Z" fill="#EF8521"/>
<path d="M12.6779 32.6704C11.0976 31.257 10.8325 28.8725 11.8764 26.8734C11.8234 26.9282 11.7713 26.9843 11.7201 27.0417C9.8673 29.1123 9.63553 31.929 11.2032 33.3309C12.2117 34.2333 13.7199 34.3288 15.1606 33.7317C14.2399 33.6565 13.3685 33.284 12.6779 32.6704Z" fill="#E86124"/>
<defs>
<filter id="filter0_d_1_568" x="7.98517" y="11.5" width="34.5146" height="27.2946" filterUnits="userSpaceOnUse" color-interpolation-filters="sRGB">
<feFlood flood-opacity="0" result="BackgroundImageFix"/>
<feColorMatrix in="SourceAlpha" type="matrix" values="0 0 0 0 0 0 0 0 0 0 0 0 0 0 0 0 0 0 127 0" result="hardAlpha"/>
<feOffset dy="1"/>
<feComposite in2="hardAlpha" operator="out"/>
<feColorMatrix type="matrix" values="0 0 0 0 0 0 0 0 0 0 0 0 0 0 0 0 0 0 0.15 0"/>
<feBlend mode="normal" in2="BackgroundImageFix" result="effect1_dropShadow_1_568"/>
<feBlend mode="normal" in="SourceGraphic" in2="effect1_dropShadow_1_568" result="shape"/>
</filter>
<radialGradient id="paint0_radial_1_568" cx="0" cy="0" r="1" gradientUnits="userSpaceOnUse" gradientTransform="translate(24.5 24.6273) rotate(90) scale(24.6273 24.5)">
<stop offset="0.53125" stop-color="#F9F9F9"/>
<stop offset="1" stop-color="white" stop-opacity="0"/>
</radialGradient>
<radialGradient id="paint1_radial_1_568" cx="0" cy="0" r="1" gradientUnits="userSpaceOnUse" gradientTransform="translate(24.5 24.6273) rotate(90) scale(24.6273 24.5)">
<stop offset="0.53125" stop-color="#F9F9F9"/>
<stop offset="1" stop-color="white" stop-opacity="0"/>
</radialGradient>
</defs>
</svg>
