<svg width="49" height="50" viewBox="0 0 49 50" fill="none" xmlns="http://www.w3.org/2000/svg">
<path fill-rule="evenodd" clip-rule="evenodd" d="M7.35034 7.08257L24.1265 23.3425L16.6171 1.33213C16.7296 1.29338 16.8425 1.25542 16.9557 1.21827L22.3659 0.0989104C22.951 0.0452512 23.542 0.0120408 24.1382 0L25.13 22.5643L35.1486 2.3385C36.5828 3.01508 37.9411 3.82591 39.2074 4.75479L27.7585 22.5643L46.5337 13.3018C47.7387 15.623 48.5852 18.1602 49 20.84L27.7585 24.3802L48.8782 29.1573C48.5603 30.8738 48.0645 32.5279 47.4106 34.0997L27.7585 25.6774L40.7694 43.2804C39.0615 44.7591 37.1482 46.007 35.0782 46.9755L26.7208 26.7151L23.3911 49.2547C22.4445 49.2072 21.5121 49.1064 20.5966 48.9551L19.7162 48.7664L25.1642 26.7151L8.42742 43.1983C6.14431 41.2014 4.23298 38.79 2.81085 36.0815L24.1265 25.6774H0.0214182C0.00718624 25.3335 0 24.9878 0 24.6405C0 23.3447 0.099998 22.0723 0.292698 20.8305L24.1265 24.3802L3.60026 11.8079C4.65525 10.0814 5.91673 8.49488 7.35034 7.08257Z" fill="url(#paint0_radial_204_3)" fill-opacity="0.5"/>
<g filter="url(#filter0_d_204_3)">
<path d="M9.87262 19.3347L14.3923 26.0722H33.9244L37.9154 19.1305L9.87262 19.3347Z" fill="url(#paint1_linear_204_3)"/>
<path d="M33.9251 15.978H14.3922V26.0723H33.9251V15.978Z" fill="url(#paint2_linear_204_3)"/>
<path d="M14.1464 26.4668L9.67987 19.7463H10.5861L15.1066 26.4668H14.1464Z" fill="#ED920D"/>
<path d="M34.2117 26.4668L38.3746 19.5035H37.4683L33.2515 26.4668H34.2117Z" fill="#ED920D"/>
<path d="M33.925 25.6777H14.1463V26.4661H33.925V25.6777Z" fill="#ED920D"/>
<path d="M36.6645 28.8527H11.9608V31.3302H36.6645V28.8527Z" fill="#3B276F"/>
<path d="M13.0899 12.2305C13.0899 12.2305 23.5603 11.7134 34.5732 12.2305L36.0304 12.5387L36.865 19.3918L10.0822 19.1853L11.3205 12.8485L13.0899 12.2305Z" fill="url(#paint3_linear_204_3)"/>
<path d="M9.60583 30.8694L14.1463 26.4668V29.2912L12.4648 30.7915L9.60583 30.8694Z" fill="#DA6313"/>
<path d="M38.5982 30.8979L34.2118 26.4668L34.2126 29.2912L35.7191 30.7915L38.5982 30.8979Z" fill="#DA6313"/>
<path d="M34.2124 26.4668H14.1463V29.2919H34.2124V26.4668Z" fill="#DA5917"/>
<path d="M37.3273 12.5641C37.2253 12.3919 37.0802 12.2494 36.9063 12.1504C36.7323 12.0515 36.5356 11.9997 36.3355 12H34.7627C34.7219 12 34.6818 12.0112 34.647 12.0325C34.6121 12.0538 34.5838 12.0843 34.5652 12.1206C34.5465 12.1569 34.5383 12.1977 34.5413 12.2384C34.5443 12.2791 34.5585 12.3182 34.5824 12.3514C36.9651 15.6651 36.2007 18.7175 36.2007 18.7175H11.796C11.796 18.7175 11.0346 15.6635 13.4143 12.3514C13.4381 12.3182 13.4523 12.279 13.4553 12.2382C13.4583 12.1974 13.45 12.1566 13.4313 12.1203C13.4125 12.0839 13.3841 12.0534 13.3492 12.0322C13.3142 12.011 13.2741 11.9998 13.2332 12H11.6642C11.4642 11.9997 11.2676 12.0516 11.0938 12.1505C10.92 12.2495 10.775 12.392 10.6732 12.5641C9.96421 13.7632 8.5062 16.3247 9.16816 19.2315C9.21921 19.4529 9.34404 19.6505 9.52217 19.7916C9.70029 19.9328 9.92112 20.0092 10.1484 20.0083H37.8521C38.0793 20.009 38.3001 19.9324 38.4781 19.7911C38.656 19.6498 38.7807 19.4522 38.8316 19.2307C39.4943 16.3247 38.0355 13.7663 37.3273 12.5641Z" fill="url(#paint4_linear_204_3)"/>
<path d="M34.2124 26.4668H14.1463L9.60583 30.8694H38.598L34.2124 26.4668ZM14.8622 26.745H33.2738C33.6904 26.7461 34.0895 26.9123 34.3835 27.2074L37.375 30.1997C37.4062 30.2306 37.4275 30.27 37.4363 30.313C37.4451 30.356 37.441 30.4006 37.4245 30.4413C37.4081 30.4819 37.38 30.5168 37.3437 30.5416C37.3075 30.5663 37.2648 30.5798 37.2209 30.5804H11.0276C10.9711 30.5802 10.9159 30.5632 10.869 30.5316C10.8222 30.4999 10.7858 30.4551 10.7645 30.4027C10.7432 30.3504 10.7379 30.2929 10.7494 30.2375C10.7608 30.1821 10.7885 30.1314 10.8288 30.0918L13.8242 27.1704C14.1016 26.8988 14.474 26.7461 14.8622 26.745Z" fill="#FFEE39"/>
<path d="M36.0304 31.6901H11.3267V42.1104H36.0304V31.6901Z" fill="url(#paint5_linear_204_3)"/>
<path d="M38.1457 30.7915H10.0105C9.93294 30.7915 9.85618 30.8068 9.78457 30.8365C9.71295 30.8661 9.64787 30.9096 9.59306 30.9644C9.53824 31.0192 9.49477 31.0843 9.4651 31.1559C9.43544 31.2275 9.42017 31.3043 9.42017 31.3818V32.846C9.41903 32.8555 9.41903 32.865 9.42017 32.8745L11.1687 42.4625C11.2106 42.6927 11.3322 42.9008 11.5121 43.0505C11.692 43.2001 11.9188 43.2816 12.1528 43.2809H36.0304C36.2638 43.2809 36.4899 43.199 36.6691 43.0495C36.8484 42.8999 36.9695 42.6922 37.0114 42.4625L38.7607 32.8776C38.7614 32.8681 38.7614 32.8586 38.7607 32.8491V31.4088C38.7609 31.2454 38.6962 31.0886 38.5809 30.9729C38.4656 30.8572 38.3091 30.7919 38.1457 30.7915ZM34.3697 41.2126H13.8135C13.7758 41.2129 13.7394 41.1995 13.711 41.1748C13.6826 41.1501 13.6642 41.1158 13.6593 41.0785L12.3986 33.0433C12.3944 33.0208 12.3952 32.9976 12.401 32.9755C12.4068 32.9534 12.4175 32.9328 12.4323 32.9153C12.447 32.8978 12.4655 32.8839 12.4863 32.8744C12.5072 32.8649 12.5298 32.8602 12.5527 32.8606H35.6281C35.651 32.8602 35.6737 32.8649 35.6945 32.8744C35.7153 32.8839 35.7338 32.8978 35.7486 32.9153C35.7633 32.9328 35.774 32.9534 35.7798 32.9755C35.7857 32.9976 35.7865 33.0208 35.7822 33.0433L34.5254 41.0785C34.5204 41.1161 34.5018 41.1505 34.4731 41.1753C34.4444 41.2 34.4076 41.2133 34.3697 41.2126Z" fill="url(#paint6_linear_204_3)"/>
<path d="M36.0303 42.0333C36.0303 42.1338 36.0005 42.232 35.9447 42.3155C35.8889 42.399 35.8096 42.4641 35.7168 42.5025C35.624 42.541 35.5219 42.551 35.4234 42.5314C35.3248 42.5118 35.2344 42.4635 35.1633 42.3924C35.0923 42.3214 35.0439 42.2309 35.0243 42.1324C35.0048 42.0339 35.0148 41.9318 35.0532 41.839C35.0917 41.7462 35.1568 41.6669 35.2403 41.6111C35.3238 41.5553 35.422 41.5255 35.5224 41.5255C35.5891 41.5255 35.6552 41.5386 35.7168 41.5642C35.7784 41.5897 35.8344 41.6271 35.8815 41.6742C35.9287 41.7214 35.9661 41.7774 35.9916 41.839C36.0171 41.9006 36.0303 41.9666 36.0303 42.0333Z" fill="#FFD217"/>
<path d="M36.7878 38.5802C36.7879 38.6808 36.7582 38.7792 36.7024 38.8629C36.6466 38.9467 36.5672 39.012 36.4743 39.0506C36.3814 39.0892 36.2791 39.0994 36.1804 39.0799C36.0817 39.0603 35.991 39.0119 35.9198 38.9408C35.8486 38.8697 35.8001 38.7791 35.7804 38.6804C35.7607 38.5818 35.7707 38.4795 35.8092 38.3865C35.8477 38.2935 35.9128 38.214 35.9965 38.1581C36.0802 38.1022 36.1785 38.0723 36.2791 38.0723C36.4139 38.0723 36.5432 38.1258 36.6385 38.221C36.7339 38.3162 36.7875 38.4454 36.7878 38.5802Z" fill="#FFD217"/>
<path d="M37.3042 35.1232C37.3042 35.2236 37.2744 35.3218 37.2186 35.4053C37.1628 35.4888 37.0835 35.5539 36.9907 35.5924C36.8979 35.6308 36.7958 35.6409 36.6972 35.6213C36.5987 35.6017 36.5082 35.5533 36.4372 35.4823C36.3662 35.4113 36.3178 35.3208 36.2982 35.2223C36.2786 35.1238 36.2887 35.0216 36.3271 34.9289C36.3656 34.8361 36.4307 34.7567 36.5142 34.7009C36.5977 34.6451 36.6959 34.6154 36.7963 34.6154C36.931 34.6154 37.0602 34.6689 37.1554 34.7641C37.2507 34.8593 37.3042 34.9885 37.3042 35.1232Z" fill="#FFD217"/>
<path d="M37.7002 31.8982C37.7002 31.9986 37.6704 32.0968 37.6146 32.1803C37.5588 32.2638 37.4795 32.3289 37.3867 32.3674C37.2939 32.4058 37.1918 32.4159 37.0933 32.3963C36.9948 32.3767 36.9043 32.3283 36.8333 32.2573C36.7622 32.1863 36.7139 32.0958 36.6943 31.9973C36.6747 31.8987 36.6847 31.7966 36.7232 31.7038C36.7616 31.611 36.8267 31.5317 36.9102 31.4759C36.9937 31.4201 37.0919 31.3903 37.1923 31.3903C37.327 31.3903 37.4562 31.4438 37.5514 31.5391C37.6467 31.6343 37.7002 31.7635 37.7002 31.8982Z" fill="#FFD217"/>
<path d="M11.9987 42.0333C11.9987 42.1338 12.0285 42.232 12.0843 42.3155C12.1401 42.399 12.2194 42.4641 12.3122 42.5025C12.405 42.541 12.5071 42.551 12.6056 42.5314C12.7041 42.5118 12.7946 42.4635 12.8656 42.3924C12.9367 42.3214 12.985 42.2309 13.0046 42.1324C13.0242 42.0339 13.0142 41.9318 12.9757 41.839C12.9373 41.7462 12.8722 41.6669 12.7887 41.6111C12.7052 41.5553 12.607 41.5255 12.5066 41.5255C12.3719 41.5255 12.2427 41.579 12.1475 41.6742C12.0522 41.7695 11.9987 41.8986 11.9987 42.0333Z" fill="#FFD217"/>
<path d="M16.5298 42.0333C16.5298 42.1338 16.5596 42.232 16.6154 42.3155C16.6712 42.399 16.7505 42.4641 16.8433 42.5025C16.9361 42.541 17.0382 42.551 17.1368 42.5314C17.2353 42.5118 17.3258 42.4635 17.3968 42.3924C17.4678 42.3214 17.5162 42.2309 17.5358 42.1324C17.5554 42.0339 17.5453 41.9318 17.5069 41.839C17.4684 41.7462 17.4033 41.6669 17.3198 41.6111C17.2363 41.5553 17.1381 41.5255 17.0377 41.5255C16.971 41.5255 16.905 41.5386 16.8433 41.5642C16.7817 41.5897 16.7257 41.6271 16.6786 41.6742C16.6314 41.7214 16.594 41.7774 16.5685 41.839C16.543 41.9006 16.5298 41.9666 16.5298 42.0333Z" fill="#FFD217"/>
<path d="M21.0612 42.0333C21.0612 42.1338 21.0909 42.232 21.1467 42.3155C21.2025 42.399 21.2819 42.4641 21.3747 42.5025C21.4674 42.541 21.5696 42.551 21.6681 42.5314C21.7666 42.5118 21.8571 42.4635 21.9281 42.3924C21.9991 42.3214 22.0475 42.2309 22.0671 42.1324C22.0867 42.0339 22.0766 41.9318 22.0382 41.839C21.9997 41.7462 21.9346 41.6669 21.8511 41.6111C21.7676 41.5553 21.6694 41.5255 21.569 41.5255C21.5023 41.5255 21.4363 41.5386 21.3747 41.5642C21.313 41.5897 21.2571 41.6271 21.2099 41.6742C21.1627 41.7214 21.1253 41.7774 21.0998 41.839C21.0743 41.9006 21.0612 41.9666 21.0612 42.0333Z" fill="#FFD217"/>
<path d="M25.5922 42.0333C25.5922 42.1338 25.622 42.232 25.6778 42.3155C25.7336 42.399 25.8129 42.4641 25.9057 42.5025C25.9985 42.541 26.1006 42.551 26.1991 42.5314C26.2976 42.5118 26.3881 42.4635 26.4592 42.3924C26.5302 42.3214 26.5785 42.2309 26.5981 42.1324C26.6177 42.0339 26.6077 41.9318 26.5692 41.839C26.5308 41.7462 26.4657 41.6669 26.3822 41.6111C26.2987 41.5553 26.2005 41.5255 26.1001 41.5255C26.0334 41.5255 25.9673 41.5386 25.9057 41.5642C25.8441 41.5897 25.7881 41.6271 25.741 41.6742C25.6938 41.7214 25.6564 41.7774 25.6309 41.839C25.6054 41.9006 25.5922 41.9666 25.5922 42.0333Z" fill="#FFD217"/>
<path d="M30.1236 42.0333C30.1236 42.1338 30.1533 42.232 30.2092 42.3155C30.265 42.399 30.3443 42.4641 30.4371 42.5025C30.5299 42.541 30.632 42.551 30.7305 42.5314C30.829 42.5118 30.9195 42.4635 30.9905 42.3924C31.0615 42.3214 31.1099 42.2309 31.1295 42.1324C31.1491 42.0339 31.139 41.9318 31.1006 41.839C31.0621 41.7462 30.9971 41.6669 30.9135 41.6111C30.83 41.5553 30.7318 41.5255 30.6314 41.5255C30.5647 41.5255 30.4987 41.5386 30.4371 41.5642C30.3754 41.5897 30.3195 41.6271 30.2723 41.6742C30.2252 41.7214 30.1877 41.7774 30.1622 41.839C30.1367 41.9006 30.1236 41.9666 30.1236 42.0333Z" fill="#FFD217"/>
<path d="M14.3937 31.8257C14.3937 31.9262 14.4235 32.0243 14.4793 32.1079C14.5351 32.1914 14.6144 32.2565 14.7072 32.2949C14.8 32.3333 14.9021 32.3434 15.0007 32.3238C15.0992 32.3042 15.1896 32.2558 15.2607 32.1848C15.3317 32.1138 15.3801 32.0233 15.3997 31.9248C15.4192 31.8263 15.4092 31.7242 15.3708 31.6314C15.3323 31.5386 15.2672 31.4593 15.1837 31.4035C15.1002 31.3477 15.002 31.3179 14.9016 31.3179C14.7669 31.3179 14.6377 31.3714 14.5425 31.4666C14.4472 31.5619 14.3937 31.691 14.3937 31.8257Z" fill="#FFD217"/>
<path d="M19.4311 32.3336C19.7116 32.3336 19.939 32.1062 19.939 31.8257C19.939 31.5453 19.7116 31.3179 19.4311 31.3179C19.1506 31.3179 18.9233 31.5453 18.9233 31.8257C18.9233 32.1062 19.1506 32.3336 19.4311 32.3336Z" fill="#FFD217"/>
<path d="M28.4938 32.3336C28.7742 32.3336 29.0016 32.1062 29.0016 31.8257C29.0016 31.5453 28.7742 31.3179 28.4938 31.3179C28.2133 31.3179 27.9859 31.5453 27.9859 31.8257C27.9859 32.1062 28.2133 32.3336 28.4938 32.3336Z" fill="#FFD217"/>
<path d="M32.5688 31.8257C32.5688 31.9262 32.5986 32.0243 32.6544 32.1079C32.7102 32.1914 32.7895 32.2565 32.8823 32.2949C32.9751 32.3333 33.0772 32.3434 33.1757 32.3238C33.2742 32.3042 33.3647 32.2558 33.4358 32.1848C33.5068 32.1138 33.5551 32.0233 33.5747 31.9248C33.5943 31.8263 33.5843 31.7242 33.5458 31.6314C33.5074 31.5386 33.4423 31.4593 33.3588 31.4035C33.2753 31.3477 33.1771 31.3179 33.0767 31.3179C32.942 31.3179 32.8128 31.3714 32.7176 31.4666C32.6223 31.5619 32.5688 31.691 32.5688 31.8257Z" fill="#FFD217"/>
<path d="M11.2412 38.5802C11.2412 38.6806 11.271 38.7788 11.3268 38.8623C11.3826 38.9458 11.4619 39.0109 11.5547 39.0493C11.6475 39.0878 11.7496 39.0978 11.8481 39.0782C11.9466 39.0586 12.0371 39.0103 12.1081 38.9393C12.1792 38.8682 12.2275 38.7777 12.2471 38.6792C12.2667 38.5807 12.2567 38.4786 12.2182 38.3858C12.1798 38.293 12.1147 38.2137 12.0312 38.1579C11.9477 38.1021 11.8495 38.0723 11.749 38.0723C11.6144 38.0723 11.4852 38.1258 11.39 38.2211C11.2947 38.3163 11.2412 38.4455 11.2412 38.5802Z" fill="#FFD217"/>
<path d="M10.7241 35.1232C10.7241 35.2236 10.7538 35.3218 10.8096 35.4053C10.8654 35.4888 10.9448 35.5539 11.0376 35.5924C11.1304 35.6308 11.2325 35.6409 11.331 35.6213C11.4295 35.6017 11.52 35.5533 11.591 35.4823C11.662 35.4113 11.7104 35.3208 11.73 35.2223C11.7496 35.1238 11.7395 35.0216 11.7011 34.9289C11.6626 34.8361 11.5975 34.7567 11.514 34.7009C11.4305 34.6451 11.3323 34.6154 11.2319 34.6154C11.0972 34.6154 10.968 34.6689 10.8728 34.7641C10.7776 34.8593 10.7241 34.9885 10.7241 35.1232Z" fill="#FFD217"/>
<path d="M10.3281 31.8982C10.3281 31.9986 10.3578 32.0968 10.4137 32.1803C10.4695 32.2638 10.5488 32.3289 10.6416 32.3674C10.7344 32.4058 10.8365 32.4159 10.935 32.3963C11.0335 32.3767 11.124 32.3283 11.195 32.2573C11.266 32.1863 11.3144 32.0958 11.334 31.9973C11.3536 31.8987 11.3435 31.7966 11.3051 31.7038C11.2666 31.611 11.2016 31.5317 11.118 31.4759C11.0345 31.4201 10.9363 31.3903 10.8359 31.3903C10.7012 31.3903 10.572 31.4438 10.4768 31.5391C10.3816 31.6343 10.3281 31.7635 10.3281 31.8982Z" fill="#FFD217"/>
<path d="M35.1132 36.9002H13.082L13.0142 36.5157H35.1803L35.1132 36.9002Z" fill="#4A30AA"/>
<path d="M35.9996 15.4678H12.0573L12.1929 15.0494H35.8309L35.9996 15.4678Z" fill="#4A30AA"/>
<path d="M22.7595 26.4714V25.6954H22.5368C22.1515 25.0504 21.2869 24.6019 20.2882 24.6019C19.2894 24.6019 18.4294 25.0504 18.0403 25.6954H17.8176V26.4714C17.8176 27.5041 18.9242 28.3409 20.2882 28.3409C21.6522 28.3409 22.7595 27.5041 22.7595 26.4714Z" fill="#E86124"/>
<path d="M18.5473 26.4714V25.6954H18.77C19.1114 25.1306 19.8135 24.7167 20.6534 24.6227C20.5322 24.6087 20.4102 24.6018 20.2882 24.6019C19.2864 24.6019 18.4294 25.0504 18.0403 25.6954H17.8176V26.4714C17.8176 27.5041 18.9242 28.3409 20.2882 28.3409C20.4102 28.3409 20.5321 28.3342 20.6534 28.3209C19.4621 28.1868 18.5473 27.41 18.5473 26.4714Z" fill="#DC4A26"/>
<path d="M20.2882 27.565C21.6526 27.565 22.7588 26.728 22.7588 25.6955C22.7588 24.6629 21.6526 23.8259 20.2882 23.8259C18.9237 23.8259 17.8176 24.6629 17.8176 25.6955C17.8176 26.728 18.9237 27.565 20.2882 27.565Z" fill="#F0E92D"/>
<path d="M20.2881 27.0486C21.2755 27.0486 22.076 26.4428 22.076 25.6954C22.076 24.9481 21.2755 24.3422 20.2881 24.3422C19.3007 24.3422 18.5003 24.9481 18.5003 25.6954C18.5003 26.4428 19.3007 27.0486 20.2881 27.0486Z" fill="#EF8521"/>
<path d="M19.0251 25.9297C19.0251 25.1768 19.5938 24.5426 20.3698 24.3446C20.3429 24.3446 20.3159 24.3446 20.2881 24.3446C19.301 24.3446 18.5003 24.9503 18.5003 25.697C18.5003 26.1779 18.8324 26.6002 19.3318 26.8398C19.1337 26.5777 19.026 26.2583 19.0251 25.9297Z" fill="#E86124"/>
<path d="M27.7253 28.4296V27.6536H27.5034C27.1088 27.0078 26.2496 26.5585 25.2508 26.5585C24.2521 26.5585 23.3921 27.0062 23.0022 27.652H22.7802V28.428C22.7802 29.4599 23.8861 30.2968 25.2508 30.2968C26.6156 30.2968 27.7253 29.4614 27.7253 28.4296Z" fill="#E86124"/>
<path d="M23.51 28.4296V27.6536H23.7327C24.0741 27.088 24.7761 26.6741 25.6161 26.5801C25.4948 26.5668 25.3729 26.5601 25.2508 26.5601C24.249 26.5601 23.3921 27.0078 23.0022 27.6536H22.7802V28.4296C22.7802 29.4615 23.8861 30.2984 25.2508 30.2984C25.3729 30.2983 25.4948 30.2917 25.6161 30.2783C24.4247 30.145 23.51 29.3682 23.51 28.4296Z" fill="#DC4A26"/>
<path d="M25.2508 29.5231C26.6153 29.5231 27.7214 28.6861 27.7214 27.6536C27.7214 26.6211 26.6153 25.784 25.2508 25.784C23.8864 25.784 22.7802 26.6211 22.7802 27.6536C22.7802 28.6861 23.8864 29.5231 25.2508 29.5231Z" fill="#F0E92D"/>
<path d="M25.2511 29.0068C26.2385 29.0068 27.0389 28.401 27.0389 27.6536C27.0389 26.9063 26.2385 26.3004 25.2511 26.3004C24.2637 26.3004 23.4632 26.9063 23.4632 27.6536C23.4632 28.401 24.2637 29.0068 25.2511 29.0068Z" fill="#EF8521"/>
<path d="M23.988 27.8878C23.988 27.1342 24.556 26.5007 25.3327 26.3019H25.2511C24.2639 26.3019 23.4632 26.9076 23.4632 27.6551C23.4632 28.136 23.7946 28.5575 24.2947 28.7972C24.0964 28.5354 23.9887 28.2162 23.988 27.8878Z" fill="#E86124"/>
<path d="M28.5731 26.1733V25.3957H28.3504C27.9613 24.7507 27.1013 24.3022 26.1025 24.3022C25.1038 24.3022 24.2438 24.7507 23.8539 25.3957H23.6312V26.1733C23.6312 27.2059 24.7378 28.0428 26.1025 28.0428C27.4673 28.0428 28.5731 27.2043 28.5731 26.1733Z" fill="#E86124"/>
<path d="M24.3594 26.1733V25.3957H24.5821C24.9227 24.8308 25.6247 24.417 26.4647 24.323C26.3437 24.309 26.222 24.3021 26.1002 24.3022C25.0984 24.3022 24.2415 24.7507 23.8515 25.3957H23.6288V26.1733C23.6288 27.2059 24.7354 28.0428 26.1002 28.0428C26.222 28.0428 26.3436 28.0361 26.4647 28.0227C25.2733 27.8871 24.3594 27.1103 24.3594 26.1733Z" fill="#DC4A26"/>
<path d="M26.1002 27.2652C27.4647 27.2652 28.5708 26.4282 28.5708 25.3957C28.5708 24.3632 27.4647 23.5262 26.1002 23.5262C24.7357 23.5262 23.6296 24.3632 23.6296 25.3957C23.6296 26.4282 24.7357 27.2652 26.1002 27.2652Z" fill="#F0E92D"/>
<path d="M26.1001 26.7489C27.0875 26.7489 27.888 26.143 27.888 25.3957C27.888 24.6483 27.0875 24.0425 26.1001 24.0425C25.1128 24.0425 24.3123 24.6483 24.3123 25.3957C24.3123 26.143 25.1128 26.7489 26.1001 26.7489Z" fill="#EF8521"/>
<path d="M24.8363 25.6338C24.8363 24.8801 25.4051 24.2467 26.1818 24.0479C26.1549 24.0479 26.1271 24.0479 26.1002 24.0479C25.1122 24.0479 24.3116 24.6536 24.3116 25.4003C24.3116 25.8812 24.6437 26.3035 25.143 26.5431C24.945 26.2812 24.8374 25.9621 24.8363 25.6338Z" fill="#E86124"/>
<path d="M23.5179 25.717V24.9402H23.2959C22.906 24.2952 22.046 23.8467 21.0473 23.8467C20.0485 23.8467 19.1885 24.2952 18.7986 24.9402H18.5767V25.7162C18.5767 26.7489 19.6825 27.5858 21.0473 27.5858C22.412 27.5858 23.5179 26.7496 23.5179 25.717Z" fill="#E86124"/>
<path d="M19.3064 25.717V24.9402H19.5291C19.8698 24.3754 20.5726 23.9608 21.4125 23.8668C21.2912 23.8534 21.1693 23.8467 21.0473 23.8467C20.0455 23.8467 19.1885 24.2952 18.7986 24.9402H18.5767V25.7162C18.5767 26.7489 19.6825 27.5858 21.0473 27.5858C21.1693 27.5859 21.2913 27.5789 21.4125 27.565C20.2212 27.4324 19.3064 26.6556 19.3064 25.717Z" fill="#DC4A26"/>
<path d="M21.0473 26.8105C22.4117 26.8105 23.5179 25.9735 23.5179 24.941C23.5179 23.9085 22.4117 23.0715 21.0473 23.0715C19.6828 23.0715 18.5767 23.9085 18.5767 24.941C18.5767 25.9735 19.6828 26.8105 21.0473 26.8105Z" fill="#F0E92D"/>
<path d="M21.0472 26.2942C22.0346 26.2942 22.8351 25.6884 22.8351 24.941C22.8351 24.1937 22.0346 23.5878 21.0472 23.5878C20.0598 23.5878 19.2594 24.1937 19.2594 24.941C19.2594 25.6884 20.0598 26.2942 21.0472 26.2942Z" fill="#EF8521"/>
<path d="M19.7834 25.1753C19.7834 24.4216 20.3521 23.7882 21.1289 23.5893H21.0472C20.0593 23.5893 19.2594 24.195 19.2594 24.9425C19.2594 25.4234 19.5908 25.8449 20.0909 26.0854C19.8922 25.8235 19.7842 25.504 19.7834 25.1753Z" fill="#E86124"/>
<path d="M24.5474 28.6924V27.9164H24.3247C23.9394 27.2713 23.0756 26.8228 22.0768 26.8228C21.0781 26.8228 20.2181 27.2713 19.8282 27.9164H19.6055V28.6924C19.6055 29.7242 20.7128 30.5657 22.0768 30.5657C23.4408 30.5657 24.5474 29.7242 24.5474 28.6924Z" fill="#E86124"/>
<path d="M20.336 28.6924V27.9164H20.5587C20.9001 27.3515 21.6022 26.9369 22.4421 26.8429C22.3211 26.8295 22.1994 26.8228 22.0776 26.8228C21.0758 26.8228 20.2189 27.2713 19.829 27.9164H19.6063V28.6924C19.6055 29.7242 20.7129 30.5657 22.0769 30.5657C22.1987 30.5655 22.3203 30.5585 22.4414 30.5449C21.2523 30.4116 20.336 29.631 20.336 28.6924Z" fill="#DC4A26"/>
<path d="M22.0769 29.7859C23.4413 29.7859 24.5475 28.9489 24.5475 27.9164C24.5475 26.8839 23.4413 26.0469 22.0769 26.0469C20.7124 26.0469 19.6063 26.8839 19.6063 27.9164C19.6063 28.9489 20.7124 29.7859 22.0769 29.7859Z" fill="#F0E92D"/>
<path d="M22.0768 29.2696C23.0642 29.2696 23.8646 28.6637 23.8646 27.9164C23.8646 27.169 23.0642 26.5632 22.0768 26.5632C21.0894 26.5632 20.289 27.169 20.289 27.9164C20.289 28.6637 21.0894 29.2696 22.0768 29.2696Z" fill="#EF8521"/>
<path d="M20.813 28.1507C20.813 27.397 21.3817 26.7636 22.1585 26.5647H22.0768C21.0889 26.5647 20.2882 27.1704 20.2882 27.9179C20.2882 28.3988 20.6203 28.8203 21.1197 29.0608C20.9216 28.7986 20.814 28.4792 20.813 28.1507Z" fill="#E86124"/>
<path d="M31.0893 28.7294V27.9526H30.8674C30.4774 27.3076 29.6174 26.8599 28.6187 26.8599C27.62 26.8599 26.76 27.3076 26.37 27.9526H26.1481V28.7294C26.1481 29.7612 27.2539 30.5981 28.6187 30.5981C29.9835 30.5981 31.0893 29.7612 31.0893 28.7294Z" fill="#E86124"/>
<path d="M26.8779 28.7294V27.9526H27.1006C27.442 27.3877 28.144 26.9739 28.984 26.8799C28.8627 26.8666 28.7407 26.8599 28.6187 26.8599C27.6169 26.8599 26.76 27.3076 26.37 27.9526H26.1481V28.7294C26.1481 29.7612 27.2539 30.5981 28.6187 30.5981C28.7407 30.5981 28.8627 30.5914 28.984 30.5781C27.7926 30.4448 26.8779 29.668 26.8779 28.7294Z" fill="#DC4A26"/>
<path d="M28.6187 29.8221C29.9832 29.8221 31.0893 28.9851 31.0893 27.9526C31.0893 26.92 29.9832 26.083 28.6187 26.083C27.2542 26.083 26.1481 26.92 26.1481 27.9526C26.1481 28.9851 27.2542 29.8221 28.6187 29.8221Z" fill="#F0E92D"/>
<path d="M28.6186 29.3058C29.606 29.3058 30.4065 28.7 30.4065 27.9526C30.4065 27.2052 29.606 26.5994 28.6186 26.5994C27.6313 26.5994 26.8308 27.2052 26.8308 27.9526C26.8308 28.7 27.6313 29.3058 28.6186 29.3058Z" fill="#EF8521"/>
<path d="M27.3548 28.1876C27.3548 27.4339 27.9235 26.8005 28.7003 26.6017H28.6186C27.6315 26.6017 26.8308 27.2074 26.8308 27.9541C26.8308 28.4357 27.1622 28.8573 27.6623 29.0969C27.4638 28.8353 27.3558 28.5161 27.3548 28.1876Z" fill="#E86124"/>
<path d="M33.5604 27.2475V26.4715H33.3377C32.9485 25.8264 32.0878 25.3779 31.089 25.3779C30.0903 25.3779 29.2303 25.8264 28.8411 26.4715H28.6184V27.2475C28.6184 28.2801 29.725 29.117 31.089 29.117C32.453 29.117 33.5604 28.2801 33.5604 27.2475Z" fill="#E86124"/>
<path d="M29.3483 27.2475V26.4715H29.5749C29.9162 25.9066 30.6183 25.4928 31.4582 25.3988C31.337 25.3848 31.215 25.3778 31.093 25.3779C30.0912 25.3779 29.2342 25.8264 28.8451 26.4715H28.6224V27.2475C28.6224 28.2801 29.729 29.117 31.093 29.117C31.215 29.117 31.3369 29.1103 31.4582 29.097C30.263 28.9629 29.3483 28.1861 29.3483 27.2475Z" fill="#DC4A26"/>
<path d="M31.089 28.3409C32.4535 28.3409 33.5596 27.5039 33.5596 26.4714C33.5596 25.4389 32.4535 24.6019 31.089 24.6019C29.7246 24.6019 28.6184 25.4389 28.6184 26.4714C28.6184 27.5039 29.7246 28.3409 31.089 28.3409Z" fill="#F0E92D"/>
<path d="M31.0893 27.8247C32.0766 27.8247 32.8771 27.2188 32.8771 26.4715C32.8771 25.7241 32.0766 25.1183 31.0893 25.1183C30.1019 25.1183 29.3014 25.7241 29.3014 26.4715C29.3014 27.2188 30.1019 27.8247 31.0893 27.8247Z" fill="#EF8521"/>
<path d="M29.8262 26.7065C29.8262 25.9528 30.3949 25.3194 31.1709 25.1206C31.144 25.1206 31.117 25.1206 31.0893 25.1206C30.1021 25.1206 29.3014 25.7263 29.3014 26.473C29.3014 26.9539 29.6336 27.3762 30.1329 27.6158C29.9349 27.3539 29.8273 27.0348 29.8262 26.7065Z" fill="#E86124"/>
<path d="M18.2785 28.6924V27.9164H18.0558C17.6704 27.2713 16.8066 26.8228 15.8079 26.8228C14.8091 26.8228 13.9491 27.2713 13.5592 27.9164H13.3365V28.6924C13.3365 29.7242 14.4431 30.5619 15.8079 30.5619C17.1726 30.5619 18.2785 29.7242 18.2785 28.6924Z" fill="#E86124"/>
<path d="M14.067 28.6924V27.9164H14.289C14.6304 27.3515 15.3324 26.9369 16.1724 26.8429C16.0513 26.8295 15.9296 26.8228 15.8079 26.8228C14.8061 26.8228 13.9491 27.2713 13.5592 27.9164H13.3365V28.6924C13.3365 29.7242 14.4431 30.5619 15.8079 30.5619C15.9296 30.5616 16.0513 30.5547 16.1724 30.5411C14.981 30.4116 14.067 29.631 14.067 28.6924Z" fill="#DC4A26"/>
<path d="M15.8078 29.7859C17.1723 29.7859 18.2784 28.9489 18.2784 27.9164C18.2784 26.8839 17.1723 26.0469 15.8078 26.0469C14.4433 26.0469 13.3372 26.8839 13.3372 27.9164C13.3372 28.9489 14.4433 29.7859 15.8078 29.7859Z" fill="#F0E92D"/>
<path d="M15.8078 29.2696C16.7952 29.2696 17.5956 28.6637 17.5956 27.9164C17.5956 27.169 16.7952 26.5632 15.8078 26.5632C14.8204 26.5632 14.02 27.169 14.02 27.9164C14.02 28.6637 14.8204 29.2696 15.8078 29.2696Z" fill="#EF8521"/>
<path d="M14.5479 28.1507C14.5479 27.397 15.1166 26.7636 15.8934 26.5647H15.8117C14.8238 26.5647 14.0231 27.1704 14.0231 27.9179C14.0231 28.3988 14.3553 28.8203 14.8546 29.0608C14.6566 28.7986 14.549 28.4792 14.5479 28.1507Z" fill="#E86124"/>
<path d="M19.5084 26.0661V25.2901H19.2857C18.8965 24.6451 18.0365 24.1966 17.0378 24.1966C16.0391 24.1966 15.1783 24.6451 14.7891 25.2901H14.5664V26.0661C14.5664 27.0987 15.673 27.9356 17.0378 27.9356C18.4025 27.9356 19.5084 27.098 19.5084 26.0661Z" fill="#E86124"/>
<path d="M15.297 26.0661V25.2901H15.5189C15.8603 24.7252 16.5623 24.3106 17.4023 24.2166C17.2812 24.2033 17.1596 24.1966 17.0378 24.1966C16.036 24.1966 15.1783 24.6451 14.7891 25.2901H14.5664V26.0661C14.5664 27.0987 15.673 27.9356 17.0378 27.9356C17.1596 27.9358 17.2813 27.9288 17.4023 27.9148C16.2109 27.7815 15.297 27.0047 15.297 26.0661Z" fill="#DC4A26"/>
<path d="M17.0378 27.1597C18.4023 27.1597 19.5084 26.3226 19.5084 25.2901C19.5084 24.2576 18.4023 23.4206 17.0378 23.4206C15.6733 23.4206 14.5672 24.2576 14.5672 25.2901C14.5672 26.3226 15.6733 27.1597 17.0378 27.1597Z" fill="#F0E92D"/>
<path d="M17.0378 26.6433C18.0252 26.6433 18.8256 26.0375 18.8256 25.2901C18.8256 24.5428 18.0252 23.9369 17.0378 23.9369C16.0504 23.9369 15.2499 24.5428 15.2499 25.2901C15.2499 26.0375 16.0504 26.6433 17.0378 26.6433Z" fill="#EF8521"/>
<path d="M15.7739 25.5243C15.7739 24.7707 16.3427 24.1372 17.1194 23.9384H17.0378C16.0498 23.9384 15.2491 24.5441 15.2491 25.2916C15.2491 25.7725 15.5813 26.194 16.0806 26.4344C15.8825 26.1723 15.7749 25.8529 15.7739 25.5243Z" fill="#E86124"/>
<path d="M21.26 28.8172V28.0412H21.0373C20.6473 27.3962 19.7873 26.9477 18.7886 26.9477C17.7899 26.9477 16.9299 27.3962 16.5407 28.0412H16.3203V28.8172C16.3203 29.8498 17.4269 30.6867 18.7909 30.6867C20.1549 30.6867 21.26 29.8498 21.26 28.8172Z" fill="#E86124"/>
<path d="M17.0478 28.8172V28.0412H17.2705C17.6119 27.4763 18.3139 27.0625 19.1539 26.9685C19.0326 26.9545 18.9107 26.9476 18.7886 26.9477C17.7868 26.9477 16.9299 27.3962 16.5407 28.0412H16.3203V28.8172C16.3203 29.8498 17.4269 30.6867 18.7909 30.6867C18.9129 30.6867 19.0349 30.68 19.1562 30.6667C17.9625 30.5326 17.0478 29.7558 17.0478 28.8172Z" fill="#DC4A26"/>
<path d="M18.7885 29.9107C20.153 29.9107 21.2591 29.0737 21.2591 28.0412C21.2591 27.0087 20.153 26.1717 18.7885 26.1717C17.4241 26.1717 16.3179 27.0087 16.3179 28.0412C16.3179 29.0737 17.4241 29.9107 18.7885 29.9107Z" fill="#F0E92D"/>
<path d="M18.7885 29.3944C19.7759 29.3944 20.5763 28.7886 20.5763 28.0412C20.5763 27.2939 19.7759 26.688 18.7885 26.688C17.8011 26.688 17.0007 27.2939 17.0007 28.0412C17.0007 28.7886 17.8011 29.3944 18.7885 29.3944Z" fill="#EF8521"/>
<path d="M17.5255 28.2755C17.5255 27.5226 18.0942 26.8884 18.8702 26.6904C18.8432 26.6904 18.8162 26.6904 18.7885 26.6904C17.8013 26.6904 17.0007 27.2953 17.0007 28.0428C17.0007 28.5237 17.3328 28.946 17.8322 29.1856C17.634 28.9235 17.5264 28.6041 17.5255 28.2755Z" fill="#E86124"/>
<path d="M35.098 28.8172V28.0412H34.8761C34.4861 27.3962 33.6261 26.9477 32.6274 26.9477C31.6287 26.9477 30.7687 27.3962 30.3787 28.0412H30.1568V28.8172C30.1568 29.8498 31.2626 30.6867 32.6274 30.6867C33.9922 30.6867 35.098 29.8498 35.098 28.8172Z" fill="#E86124"/>
<path d="M30.885 28.8172V28.0412H31.1077C31.4483 27.4763 32.1511 27.0625 32.9911 26.9685C32.8698 26.9545 32.7479 26.9476 32.6258 26.9477C31.624 26.9477 30.7671 27.3962 30.3771 28.0412H30.1552V28.8172C30.1552 29.8498 31.261 30.6867 32.6258 30.6867C32.7478 30.6867 32.8698 30.68 32.9911 30.6667C31.8013 30.5326 30.885 29.7558 30.885 28.8172Z" fill="#DC4A26"/>
<path d="M32.6274 29.9107C33.9919 29.9107 35.098 29.0737 35.098 28.0412C35.098 27.0087 33.9919 26.1717 32.6274 26.1717C31.2629 26.1717 30.1568 27.0087 30.1568 28.0412C30.1568 29.0737 31.2629 29.9107 32.6274 29.9107Z" fill="#F0E92D"/>
<path d="M32.6273 29.3944C33.6147 29.3944 34.4152 28.7886 34.4152 28.0412C34.4152 27.2939 33.6147 26.688 32.6273 26.688C31.6399 26.688 30.8395 27.2939 30.8395 28.0412C30.8395 28.7886 31.6399 29.3944 32.6273 29.3944Z" fill="#EF8521"/>
<path d="M31.3635 28.2755C31.3635 27.5226 31.9322 26.8884 32.709 26.6904C32.6821 26.6904 32.6551 26.6904 32.6273 26.6904C31.6394 26.6904 30.8395 27.2953 30.8395 28.0428C30.8395 28.5237 31.1709 28.946 31.671 29.1856C31.4723 28.9237 31.3644 28.6042 31.3635 28.2755Z" fill="#E86124"/>
<path d="M37.7789 30.6867H10.7241V29.7859H37.5184L37.7789 30.6867Z" fill="#FFEE39"/>
<path d="M25.5475 30.6328H22.163C21.9253 30.6328 21.6973 30.7272 21.5293 30.8953C21.3612 31.0634 21.2668 31.2913 21.2668 31.529V33.3831C21.2668 33.8779 21.4124 34.0836 22.163 34.0836H25.5475C26.1818 34.0836 26.4438 33.8779 26.4438 33.3831V31.529C26.4438 31.2913 26.3493 31.0634 26.1813 30.8953C26.0132 30.7272 25.7852 30.6328 25.5475 30.6328Z" fill="#EF8412"/>
<path d="M25.5475 30.1643H22.163C21.668 30.1643 21.2668 30.5655 21.2668 31.0605V32.9146C21.2668 33.4096 21.668 33.8108 22.163 33.8108H25.5475C26.0425 33.8108 26.4438 33.4096 26.4438 32.9146V31.0605C26.4438 30.5655 26.0425 30.1643 25.5475 30.1643Z" fill="#FDCB08"/>
<path d="M24.4155 31.368C24.4157 31.4788 24.3829 31.5872 24.3215 31.6795C24.26 31.7717 24.1726 31.8436 24.0702 31.8861C23.9679 31.9287 23.8552 31.9399 23.7465 31.9183C23.6377 31.8968 23.5378 31.8435 23.4594 31.7652C23.381 31.6869 23.3275 31.587 23.3059 31.4783C23.2842 31.3697 23.2952 31.257 23.3376 31.1546C23.38 31.0521 23.4518 30.9646 23.544 30.903C23.6361 30.8414 23.7444 30.8085 23.8553 30.8085C24.0037 30.8085 24.1461 30.8674 24.2512 30.9723C24.3562 31.0772 24.4153 31.2195 24.4155 31.368Z" fill="#3B276F"/>
<path d="M23.8553 31.3688L23.3667 32.9393H24.4155L23.8553 31.3688Z" fill="#3B276F"/>
</g>
<defs>
<filter id="filter0_d_204_3" x="9" y="12" width="30" height="32.2809" filterUnits="userSpaceOnUse" color-interpolation-filters="sRGB">
<feFlood flood-opacity="0" result="BackgroundImageFix"/>
<feColorMatrix in="SourceAlpha" type="matrix" values="0 0 0 0 0 0 0 0 0 0 0 0 0 0 0 0 0 0 127 0" result="hardAlpha"/>
<feOffset dy="1"/>
<feComposite in2="hardAlpha" operator="out"/>
<feColorMatrix type="matrix" values="0 0 0 0 0 0 0 0 0 0 0 0 0 0 0 0 0 0 0.15 0"/>
<feBlend mode="normal" in2="BackgroundImageFix" result="effect1_dropShadow_204_3"/>
<feBlend mode="normal" in="SourceGraphic" in2="effect1_dropShadow_204_3" result="shape"/>
</filter>
<radialGradient id="paint0_radial_204_3" cx="0" cy="0" r="1" gradientUnits="userSpaceOnUse" gradientTransform="translate(24.5 24.6273) rotate(90) scale(24.6273 24.5)">
<stop offset="0.53125" stop-color="#F9F9F9"/>
<stop offset="1" stop-color="white" stop-opacity="0"/>
</radialGradient>
<linearGradient id="paint1_linear_204_3" x1="23.894" y1="19.1305" x2="23.894" y2="26.0722" gradientUnits="userSpaceOnUse">
<stop stop-color="#5015CD"/>
<stop offset="1" stop-color="#4E3ADD"/>
</linearGradient>
<linearGradient id="paint2_linear_204_3" x1="24.1586" y1="15.978" x2="24.1586" y2="26.0723" gradientUnits="userSpaceOnUse">
<stop stop-color="#994FFF"/>
<stop offset="1" stop-color="#2611A6"/>
</linearGradient>
<linearGradient id="paint3_linear_204_3" x1="23.4736" y1="12.0007" x2="23.4736" y2="19.3918" gradientUnits="userSpaceOnUse">
<stop stop-color="#7954FD"/>
<stop offset="1" stop-color="#7B2CEF"/>
</linearGradient>
<linearGradient id="paint4_linear_204_3" x1="24" y1="12" x2="24" y2="20.0083" gradientUnits="userSpaceOnUse">
<stop stop-color="#FEF270"/>
<stop offset="1" stop-color="#FFD217"/>
</linearGradient>
<linearGradient id="paint5_linear_204_3" x1="23.6786" y1="31.6901" x2="23.6786" y2="42.1104" gradientUnits="userSpaceOnUse">
<stop stop-color="#641FEE"/>
<stop offset="1" stop-color="#A85AFF"/>
</linearGradient>
<linearGradient id="paint6_linear_204_3" x1="24.0903" y1="30.7915" x2="24.0903" y2="43.2809" gradientUnits="userSpaceOnUse">
<stop stop-color="#FED903"/>
<stop offset="1" stop-color="#EF8521"/>
</linearGradient>
</defs>
</svg>
