<svg width="21" height="22" viewBox="0 0 21 22" fill="none" xmlns="http://www.w3.org/2000/svg">
<path d="M20.0927 14.1903V12.3633H19.569C18.6519 10.8443 16.626 9.78857 14.2748 9.78857C11.9236 9.78857 9.89709 10.8443 8.97997 12.3633H8.4563V14.1903C8.4563 16.622 11.0612 18.5926 14.2748 18.5926C17.4883 18.5926 20.0927 16.6248 20.0927 14.1903Z" fill="#E86124"/>
<path d="M10.1754 14.1903V12.3633H10.6991C11.5027 11.0326 13.1581 10.058 15.1343 9.83608C14.8489 9.80435 14.562 9.78849 14.2748 9.78857C11.923 9.78857 9.89709 10.8443 8.97997 12.3633H8.4563V14.1903C8.4563 16.622 11.0612 18.5926 14.2748 18.5926C14.562 18.5928 14.849 18.5767 15.1343 18.5445C12.3282 18.2304 10.1754 16.4012 10.1754 14.1903Z" fill="#DC4A26"/>
<path d="M14.2748 16.766C17.4883 16.766 20.0933 14.795 20.0933 12.3637C20.0933 9.9324 17.4883 7.96143 14.2748 7.96143C11.0613 7.96143 8.4563 9.9324 8.4563 12.3637C8.4563 14.795 11.0613 16.766 14.2748 16.766Z" fill="#F0E92D"/>
<path d="M14.275 15.549C16.6005 15.549 18.4856 14.1227 18.4856 12.3633C18.4856 10.604 16.6005 9.17773 14.275 9.17773C11.9496 9.17773 10.0645 10.604 10.0645 12.3633C10.0645 14.1227 11.9496 15.549 14.275 15.549Z" fill="#EF8521"/>
<path d="M11.2993 12.9156C11.2993 11.1411 12.6406 9.64615 14.467 9.18116C14.4033 9.18116 14.339 9.17725 14.2748 9.17725C11.9487 9.17725 10.0636 10.6035 10.0636 12.3629C10.0636 13.4951 10.846 14.4866 12.0197 15.0539C11.5546 14.4378 11.3018 13.6875 11.2993 12.9156Z" fill="#E86124"/>
<path d="M19.4784 11.5454V9.71782H18.9547C18.0371 8.19879 16.0117 7.14307 13.6599 7.14307C11.3082 7.14307 9.28278 8.19879 8.3651 9.71782H7.84143V11.5454C7.84143 13.9765 10.4464 15.9476 13.6599 15.9476C16.8735 15.9476 19.4784 13.9765 19.4784 11.5454Z" fill="#E86124"/>
<path d="M9.5611 11.5454V9.71782H10.0848C10.8879 8.38769 12.5438 7.413 14.5195 7.19113C14.2341 7.15919 13.9471 7.14315 13.6599 7.14307C11.3082 7.14307 9.28278 8.19879 8.3651 9.71782H7.84143V11.5454C7.84143 13.9765 10.4464 15.9476 13.6599 15.9476C13.9471 15.9476 14.2341 15.9315 14.5195 15.8996C11.7139 15.5855 9.5611 13.7557 9.5611 11.5454Z" fill="#DC4A26"/>
<path d="M13.6599 14.12C16.8734 14.12 19.4784 12.149 19.4784 9.71772C19.4784 7.2864 16.8734 5.31543 13.6599 5.31543C10.4465 5.31543 7.84143 7.2864 7.84143 9.71772C7.84143 12.149 10.4465 14.12 13.6599 14.12Z" fill="#F0E92D"/>
<path d="M13.6601 12.9034C15.9856 12.9034 17.8707 11.4772 17.8707 9.71784C17.8707 7.95847 15.9856 6.53223 13.6601 6.53223C11.3347 6.53223 9.44952 7.95847 9.44952 9.71784C9.44952 11.4772 11.3347 12.9034 13.6601 12.9034Z" fill="#EF8521"/>
<path d="M10.6852 10.2706C10.6852 8.49613 12.0265 7.00113 13.8529 6.53614C13.7887 6.53614 13.7249 6.53223 13.6601 6.53223C11.3346 6.53223 9.44952 7.95849 9.44952 9.71784C9.44952 10.8501 10.232 11.8416 11.4056 12.4088C10.9401 11.793 10.6873 11.0426 10.6852 10.2706V10.2706Z" fill="#E86124"/>
<path d="M20.0927 8.87495V7.04741H19.569C18.6519 5.52838 16.626 4.47266 14.2748 4.47266C11.9236 4.47266 9.89709 5.52838 8.97997 7.04741H8.4563V8.87495C8.4563 11.3061 11.0612 13.2767 14.2748 13.2767C17.4883 13.2767 20.0927 11.3061 20.0927 8.87495Z" fill="#E86124"/>
<path d="M10.1754 8.87495V7.04741H10.6991C11.5027 5.71672 13.1581 4.74204 15.1343 4.52072C14.849 4.48852 14.562 4.47247 14.2748 4.47266C11.923 4.47266 9.89709 5.52838 8.97997 7.04741H8.4563V8.87495C8.4563 11.3061 11.0612 13.2767 14.2748 13.2767C14.562 13.2768 14.8489 13.2609 15.1343 13.2292C12.3282 12.9145 10.1754 11.0848 10.1754 8.87495Z" fill="#DC4A26"/>
<path d="M14.2748 11.4496C17.4883 11.4496 20.0933 9.47863 20.0933 7.04731C20.0933 4.61599 17.4883 2.64502 14.2748 2.64502C11.0613 2.64502 8.4563 4.61599 8.4563 7.04731C8.4563 9.47863 11.0613 11.4496 14.2748 11.4496Z" fill="#F0E92D"/>
<path d="M14.275 10.233C16.6005 10.233 18.4856 8.80679 18.4856 7.04743C18.4856 5.28806 16.6005 3.86182 14.275 3.86182C11.9496 3.86182 10.0645 5.28806 10.0645 7.04743C10.0645 8.80679 11.9496 10.233 14.275 10.233Z" fill="#EF8521"/>
<path d="M11.2993 7.5996C11.2993 5.82572 12.6406 4.33016 14.467 3.86517C14.4033 3.86517 14.339 3.86182 14.2748 3.86182C11.9487 3.86182 10.0636 5.28808 10.0636 7.04743C10.0636 8.17972 10.846 9.17117 12.0197 9.73843C11.5545 9.1222 11.3017 8.3717 11.2993 7.5996V7.5996Z" fill="#E86124"/>
<path d="M19.4784 6.22993V4.40239H18.9547C18.0371 2.88336 16.0117 1.82764 13.6599 1.82764C11.3082 1.82764 9.28278 2.88336 8.3651 4.40239H7.84143V6.22993C7.84143 8.66105 10.4464 10.6317 13.6599 10.6317C16.8735 10.6317 19.4784 8.66105 19.4784 6.22993Z" fill="#E86124"/>
<path d="M9.5611 6.22993V4.40239H10.0848C10.8879 3.0717 12.5438 2.09702 14.5195 1.87514C14.2341 1.8434 13.9471 1.82753 13.6599 1.82764C11.3082 1.82764 9.28278 2.88336 8.3651 4.40239H7.84143V6.22993C7.84143 8.66105 10.4464 10.6317 13.6599 10.6317C13.9471 10.6319 14.2341 10.6158 14.5195 10.5836C11.7139 10.2695 9.5611 8.43973 9.5611 6.22993Z" fill="#DC4A26"/>
<path d="M13.6599 8.80458C16.8734 8.80458 19.4784 6.8336 19.4784 4.40229C19.4784 1.97097 16.8734 0 13.6599 0C10.4465 0 7.84143 1.97097 7.84143 4.40229C7.84143 6.8336 10.4465 8.80458 13.6599 8.80458Z" fill="#F0E92D"/>
<path d="M13.6601 7.58802C15.9856 7.58802 17.8707 6.16177 17.8707 4.40241C17.8707 2.64304 15.9856 1.2168 13.6601 1.2168C11.3347 1.2168 9.44952 2.64304 9.44952 4.40241C9.44952 6.16177 11.3347 7.58802 13.6601 7.58802Z" fill="#EF8521"/>
<path d="M10.6852 4.95465C10.6852 3.18021 12.0265 1.68521 13.8529 1.22022C13.7887 1.22022 13.7249 1.21631 13.6601 1.21631C11.3346 1.21631 9.44952 2.64257 9.44952 4.40192C9.44952 5.53421 10.232 6.52566 11.4056 7.09292C10.9403 6.47696 10.6875 5.7266 10.6852 4.95465V4.95465Z" fill="#E86124"/>
<path d="M12.4015 11.589L11.0395 10.3706L10.6902 10.7618C8.94653 10.4326 6.80937 11.2391 5.24172 12.9917C3.67406 14.7444 3.11015 16.9603 3.63159 18.6543L3.28229 19.0455L4.64428 20.2639C6.45672 21.8846 9.66245 21.257 11.8046 18.8617C13.9468 16.4663 14.214 13.2097 12.4015 11.589Z" fill="#E86124"/>
<path d="M5.78974 18.9812L4.42775 17.7628L4.77705 17.3716C4.32101 15.8855 4.69658 14.0032 5.8501 12.3813C5.63587 12.5733 5.43267 12.7773 5.24148 12.9922C3.67662 14.7454 3.10992 16.9602 3.63079 18.6553L3.28149 19.0465L4.64348 20.2649C6.45593 21.8856 9.66165 21.258 11.8038 18.8627C11.9953 18.6494 12.1747 18.4255 12.3409 18.192C10.2362 20.0693 7.43732 20.4549 5.78974 18.9812Z" fill="#DC4A26"/>
<path d="M10.4414 17.6427C12.5837 15.2475 12.8513 11.9918 11.0391 10.371C9.2269 8.7501 6.02114 9.37781 3.87885 11.773C1.73655 14.1682 1.46896 17.4238 3.28117 19.0447C5.09337 20.6656 8.29913 20.0379 10.4414 17.6427Z" fill="#F0E92D"/>
<path d="M9.53447 16.8317C11.0848 15.0984 11.2785 12.7425 9.96709 11.5696C8.65573 10.3967 6.33591 10.851 4.78562 12.5842C3.23533 14.3175 3.04164 16.6735 4.353 17.8464C5.66436 19.0193 7.98418 18.565 9.53447 16.8317Z" fill="#EF8521"/>
<path d="M5.58751 17.2958C4.2652 16.1132 4.04333 14.118 4.91686 12.4453C4.87252 12.4911 4.82893 12.5381 4.78608 12.5861C3.23575 14.3187 3.04182 16.6755 4.35351 17.8486C5.19741 18.6036 6.45936 18.6835 7.66486 18.1839C6.89444 18.1209 6.16536 17.8093 5.58751 17.2958Z" fill="#E86124"/>
</svg>
