<svg width="49" height="50" viewBox="0 0 49 50" fill="none" xmlns="http://www.w3.org/2000/svg">
<path d="M25.1299 22.5635L35.1475 2.33887C36.5814 3.01534 37.9398 3.82519 39.2061 4.75391L27.7588 22.5635L46.5322 13.3018C47.7371 15.6229 48.5842 18.1592 48.999 20.8389L27.7588 24.3789L48.876 29.1553C48.5581 30.8718 48.063 32.5258 47.4092 34.0977L27.7588 25.6768L40.7686 43.2793C39.0607 44.7579 37.1471 46.0042 35.0771 46.9727L26.7207 26.7139L23.3906 49.2529C22.4283 49.2047 21.4809 49.0999 20.5508 48.9443L19.7158 48.7656L25.1641 26.7139L8.42773 43.1963C6.14455 41.1992 4.23363 38.7878 2.81152 36.0791L24.127 25.6768H0.0234375C0.00919574 25.3328 2.11302e-06 24.9871 0 24.6396C0 23.3437 0.10022 22.071 0.292969 20.8291L24.127 24.3789L3.60059 11.8066C4.65539 10.0805 5.91731 8.49507 7.35059 7.08301L24.127 23.3418L16.6172 1.33203C16.735 1.29147 16.8531 1.25171 16.9717 1.21289L22.3496 0.100586C22.9402 0.0460232 23.5367 0.0121451 24.1387 0L25.1299 22.5635Z" fill="url(#paint0_radial_343_982)" fill-opacity="0.5"/>
<path d="M34.0927 28.1903V26.3633H33.569C32.6519 24.8443 30.626 23.7886 28.2748 23.7886C25.9236 23.7886 23.8971 24.8443 22.98 26.3633H22.4563V28.1903C22.4563 30.622 25.0612 32.5926 28.2748 32.5926C31.4883 32.5926 34.0927 30.6248 34.0927 28.1903Z" fill="#E86124"/>
<path d="M24.1754 28.1903V26.3633H24.6991C25.5027 25.0326 27.1581 24.058 29.1343 23.8361C28.8489 23.8043 28.562 23.7885 28.2748 23.7886C25.923 23.7886 23.8971 24.8443 22.98 26.3633H22.4563V28.1903C22.4563 30.622 25.0612 32.5926 28.2748 32.5926C28.562 32.5928 28.849 32.5767 29.1343 32.5445C26.3282 32.2304 24.1754 30.4012 24.1754 28.1903Z" fill="#DC4A26"/>
<path d="M28.2748 30.766C31.4883 30.766 34.0933 28.795 34.0933 26.3637C34.0933 23.9324 31.4883 21.9614 28.2748 21.9614C25.0613 21.9614 22.4563 23.9324 22.4563 26.3637C22.4563 28.795 25.0613 30.766 28.2748 30.766Z" fill="#F0E92D"/>
<path d="M28.275 29.549C30.6005 29.549 32.4856 28.1227 32.4856 26.3633C32.4856 24.604 30.6005 23.1777 28.275 23.1777C25.9496 23.1777 24.0645 24.604 24.0645 26.3633C24.0645 28.1227 25.9496 29.549 28.275 29.549Z" fill="#EF8521"/>
<path d="M25.2993 26.9156C25.2993 25.1411 26.6406 23.6461 28.467 23.1812C28.4033 23.1812 28.339 23.1772 28.2748 23.1772C25.9487 23.1772 24.0636 24.6035 24.0636 26.3629C24.0636 27.4951 24.846 28.4866 26.0197 29.0539C25.5546 28.4378 25.3018 27.6875 25.2993 26.9156Z" fill="#E86124"/>
<path d="M33.4784 25.5454V23.7178H32.9547C32.0371 22.1988 30.0117 21.1431 27.6599 21.1431C25.3082 21.1431 23.2828 22.1988 22.3651 23.7178H21.8414V25.5454C21.8414 27.9765 24.4464 29.9476 27.6599 29.9476C30.8735 29.9476 33.4784 27.9765 33.4784 25.5454Z" fill="#E86124"/>
<path d="M23.5611 25.5454V23.7178H24.0848C24.8879 22.3877 26.5438 21.413 28.5195 21.1911C28.2341 21.1592 27.9471 21.1431 27.6599 21.1431C25.3082 21.1431 23.2828 22.1988 22.3651 23.7178H21.8414V25.5454C21.8414 27.9765 24.4464 29.9476 27.6599 29.9476C27.9471 29.9476 28.2341 29.9315 28.5195 29.8996C25.7139 29.5855 23.5611 27.7557 23.5611 25.5454Z" fill="#DC4A26"/>
<path d="M27.6599 28.12C30.8734 28.12 33.4784 26.149 33.4784 23.7177C33.4784 21.2864 30.8734 19.3154 27.6599 19.3154C24.4465 19.3154 21.8414 21.2864 21.8414 23.7177C21.8414 26.149 24.4465 28.12 27.6599 28.12Z" fill="#F0E92D"/>
<path d="M27.6601 26.9034C29.9856 26.9034 31.8707 25.4772 31.8707 23.7178C31.8707 21.9585 29.9856 20.5322 27.6601 20.5322C25.3347 20.5322 23.4495 21.9585 23.4495 23.7178C23.4495 25.4772 25.3347 26.9034 27.6601 26.9034Z" fill="#EF8521"/>
<path d="M24.6852 24.2706C24.6852 22.4961 26.0265 21.0011 27.8529 20.5361C27.7887 20.5361 27.7249 20.5322 27.6601 20.5322C25.3346 20.5322 23.4495 21.9585 23.4495 23.7178C23.4495 24.8501 24.232 25.8416 25.4056 26.4088C24.9401 25.793 24.6873 25.0426 24.6852 24.2706V24.2706Z" fill="#E86124"/>
<path d="M34.0927 22.8749V21.0474H33.569C32.6519 19.5284 30.626 18.4727 28.2748 18.4727C25.9236 18.4727 23.8971 19.5284 22.98 21.0474H22.4563V22.8749C22.4563 25.3061 25.0612 27.2767 28.2748 27.2767C31.4883 27.2767 34.0927 25.3061 34.0927 22.8749Z" fill="#E86124"/>
<path d="M24.1754 22.8749V21.0474H24.6991C25.5027 19.7167 27.1581 18.742 29.1343 18.5207C28.849 18.4885 28.562 18.4725 28.2748 18.4727C25.923 18.4727 23.8971 19.5284 22.98 21.0474H22.4563V22.8749C22.4563 25.3061 25.0612 27.2767 28.2748 27.2767C28.562 27.2768 28.8489 27.2609 29.1343 27.2292C26.3282 26.9145 24.1754 25.0848 24.1754 22.8749Z" fill="#DC4A26"/>
<path d="M28.2748 25.4496C31.4883 25.4496 34.0933 23.4786 34.0933 21.0473C34.0933 18.616 31.4883 16.645 28.2748 16.645C25.0613 16.645 22.4563 18.616 22.4563 21.0473C22.4563 23.4786 25.0613 25.4496 28.2748 25.4496Z" fill="#F0E92D"/>
<path d="M28.275 24.233C30.6005 24.233 32.4856 22.8068 32.4856 21.0474C32.4856 19.2881 30.6005 17.8618 28.275 17.8618C25.9496 17.8618 24.0645 19.2881 24.0645 21.0474C24.0645 22.8068 25.9496 24.233 28.275 24.233Z" fill="#EF8521"/>
<path d="M25.2993 21.5996C25.2993 19.8257 26.6406 18.3302 28.467 17.8652C28.4033 17.8652 28.339 17.8618 28.2748 17.8618C25.9487 17.8618 24.0636 19.2881 24.0636 21.0474C24.0636 22.1797 24.846 23.1712 26.0197 23.7384C25.5545 23.1222 25.3017 22.3717 25.2993 21.5996V21.5996Z" fill="#E86124"/>
<path d="M33.4784 20.2299V18.4024H32.9547C32.0371 16.8834 30.0117 15.8276 27.6599 15.8276C25.3082 15.8276 23.2828 16.8834 22.3651 18.4024H21.8414V20.2299C21.8414 22.6611 24.4464 24.6317 27.6599 24.6317C30.8735 24.6317 33.4784 22.6611 33.4784 20.2299Z" fill="#E86124"/>
<path d="M23.5611 20.2299V18.4024H24.0848C24.8879 17.0717 26.5438 16.097 28.5195 15.8751C28.2341 15.8434 27.9471 15.8275 27.6599 15.8276C25.3082 15.8276 23.2828 16.8834 22.3651 18.4024H21.8414V20.2299C21.8414 22.6611 24.4464 24.6317 27.6599 24.6317C27.9471 24.6319 28.2341 24.6158 28.5195 24.5836C25.7139 24.2695 23.5611 22.4397 23.5611 20.2299Z" fill="#DC4A26"/>
<path d="M27.6599 22.8046C30.8734 22.8046 33.4784 20.8336 33.4784 18.4023C33.4784 15.971 30.8734 14 27.6599 14C24.4465 14 21.8414 15.971 21.8414 18.4023C21.8414 20.8336 24.4465 22.8046 27.6599 22.8046Z" fill="#F0E92D"/>
<path d="M27.6601 21.588C29.9856 21.588 31.8707 20.1618 31.8707 18.4024C31.8707 16.643 29.9856 15.2168 27.6601 15.2168C25.3347 15.2168 23.4495 16.643 23.4495 18.4024C23.4495 20.1618 25.3347 21.588 27.6601 21.588Z" fill="#EF8521"/>
<path d="M24.6852 18.9547C24.6852 17.1802 26.0265 15.6852 27.8529 15.2202C27.7887 15.2202 27.7249 15.2163 27.6601 15.2163C25.3346 15.2163 23.4495 16.6426 23.4495 18.4019C23.4495 19.5342 24.232 20.5257 25.4056 21.0929C24.9403 20.477 24.6875 19.7266 24.6852 18.9547V18.9547Z" fill="#E86124"/>
<path d="M26.4015 25.589L25.0395 24.3706L24.6902 24.7618C22.9465 24.4326 20.8094 25.2391 19.2417 26.9917C17.6741 28.7444 17.1102 30.9603 17.6316 32.6543L17.2823 33.0455L18.6443 34.2639C20.4567 35.8846 23.6624 35.257 25.8046 32.8617C27.9468 30.4663 28.214 27.2097 26.4015 25.589Z" fill="#E86124"/>
<path d="M19.7897 32.9812L18.4278 31.7628L18.7771 31.3716C18.321 29.8855 18.6966 28.0032 19.8501 26.3813C19.6359 26.5733 19.4327 26.7773 19.2415 26.9922C17.6766 28.7454 17.1099 30.9602 17.6308 32.6553L17.2815 33.0465L18.6435 34.2649C20.4559 35.8856 23.6617 35.258 25.8038 32.8627C25.9953 32.6494 26.1747 32.4255 26.3409 32.192C24.2362 34.0693 21.4373 34.4549 19.7897 32.9812Z" fill="#DC4A26"/>
<path d="M24.4414 31.6427C26.5837 29.2475 26.8513 25.9918 25.0391 24.371C23.2269 22.7501 20.0211 23.3778 17.8788 25.773C15.7366 28.1682 15.469 31.4238 17.2812 33.0447C19.0934 34.6656 22.2991 34.0379 24.4414 31.6427Z" fill="#F0E92D"/>
<path d="M23.5345 30.8317C25.0848 29.0984 25.2785 26.7425 23.9671 25.5696C22.6557 24.3967 20.3359 24.851 18.7856 26.5842C17.2353 28.3175 17.0416 30.6735 18.353 31.8464C19.6644 33.0193 21.9842 32.565 23.5345 30.8317Z" fill="#EF8521"/>
<path d="M19.5875 31.2958C18.2652 30.1132 18.0433 28.118 18.9169 26.4453C18.8725 26.4911 18.8289 26.5381 18.7861 26.5861C17.2357 28.3187 17.0418 30.6755 18.3535 31.8486C19.1974 32.6036 20.4594 32.6835 21.6649 32.1839C20.8944 32.1209 20.1654 31.8093 19.5875 31.2958Z" fill="#E86124"/>
<defs>
<radialGradient id="paint0_radial_343_982" cx="0" cy="0" r="1" gradientUnits="userSpaceOnUse" gradientTransform="translate(24.4995 24.6265) rotate(90) scale(24.6265 24.4995)">
<stop offset="0.53125" stop-color="#F9F9F9"/>
<stop offset="1" stop-color="white" stop-opacity="0"/>
</radialGradient>
</defs>
</svg>
