<svg width="250" height="250" viewBox="0 0 250 250" fill="none" xmlns="http://www.w3.org/2000/svg">
<g filter="url(#filter0_i_288_756)">
<path d="M156.542 40.4787L183.63 28.8062L175.215 81.2174L224.543 100.836L181.529 131.949L202.538 180.7L180.733 177.201" stroke="black" stroke-width="0.679185" stroke-linecap="round" stroke-linejoin="round"/>
<path d="M87.9287 46.6187L103.766 6.80249L133.475 47.8712" stroke="black" stroke-width="0.679185" stroke-linecap="round" stroke-linejoin="round"/>
<path d="M78.4832 187.612L66.3832 192.826L50.6457 199.609L59.0557 147.197L9.73193 127.579L52.7407 96.4662L31.7369 47.715L58.2719 51.9762" stroke="black" stroke-width="0.679185" stroke-linecap="round" stroke-linejoin="round"/>
<path d="M199.719 64.5186L196.094 65.7261L195.449 69.4899L193.179 66.4199L189.402 66.9699L191.62 63.8649L189.931 60.4386L193.574 61.5911L196.306 58.9224L196.336 62.7424L199.719 64.5186Z" fill="black"/>
<path d="M154.528 54.8436C154.681 54.4997 154.873 54.1742 155.099 53.8736C156.779 51.7161 162.11 52.1411 162.11 59.4511C162.11 66.7611 162.708 71.7936 162.829 73.9511C162.95 76.1086 162.704 84.8561 162.829 89.0474C162.954 93.2386 164.627 105.556 164.267 110.23L164.479 110.451C165.263 109.689 165.979 108.97 166.584 108.394C168.992 106.107 168.03 103.582 174.887 101.295C181.743 99.0074 186.795 101.776 186.795 103.582C186.795 105.389 180.517 108.272 179.67 110.2C178.824 112.127 175.102 115.851 173.777 117.779C172.452 119.706 173.027 129.06 167.978 132.91C165.565 134.746 162.907 138.15 159.978 141.394C160.12 141.894 169.497 173.745 172.412 181.38L172.528 181.705C160.224 186.274 143.538 202.276 137.735 204.532L137.713 204.009C137.41 202.995 136.562 200.08 135.47 196.304C132.308 185.356 127.085 167.179 127.085 167.179C127.133 165.736 127.164 164.611 127.164 163.94C127.164 159.19 129.359 158.275 130.087 147.851C130.814 137.427 125.518 114.936 119.849 107.44C119.849 107.44 119.572 106.522 119.099 105.032C119.099 105.032 120.303 98.0686 121.048 94.8761C121.793 91.6836 122.538 81.9011 124.56 78.3936C126.332 75.3685 127.42 71.9925 127.748 68.5024C127.855 66.0549 130.61 56.9524 131.485 55.1461C131.807 54.4484 132.378 53.8961 133.086 53.5974C133.794 53.2987 134.588 53.275 135.313 53.5311L135.717 53.6036C136.061 51.386 136.525 49.1887 137.107 47.0211C138.284 43.4436 140.718 40.5474 145.079 41.7036L145.257 41.7286C145.594 40.8606 146.097 40.0666 146.738 39.3911C149.795 36.4499 153.325 38.3299 154.148 43.7424C154.644 47.4208 154.772 51.1398 154.528 54.8436Z" fill="#FFD997"/>
<path d="M166.862 22.0337L160.17 22.6312L157.537 28.8062L154.904 22.6312L148.213 22.0337L153.275 17.6199L151.777 11.0762L157.537 14.5237L163.297 11.0762L161.799 17.6199L166.862 22.0337Z" fill="#81F8F8"/>
<path d="M137.719 204.009L137.741 204.532C137.456 204.65 137.157 204.734 136.852 204.782C136.174 204.937 135.471 204.94 134.791 204.791C134.112 204.643 133.473 204.347 132.921 203.925C131.184 202.322 131.999 198.935 135.38 196.332L135.476 196.306C136.567 200.08 137.416 203 137.719 204.009Z" fill="black"/>
<path d="M96.0705 66.6399C96.8688 66.3878 97.7138 66.3193 98.5424 66.4394C99.3709 66.5595 100.162 66.8652 100.855 67.3336C104.68 69.5199 107.552 77.8574 111.105 84.0074C113.842 88.7399 117.549 100.061 119.113 105.029C119.58 106.519 119.863 107.436 119.863 107.436C125.532 114.936 130.833 137.422 130.1 147.847C129.368 158.272 127.177 159.185 127.177 163.936C127.177 164.607 127.147 165.732 127.099 167.175C126.792 175.867 125.724 195.975 125.705 196.326L86.3305 183.472L87.898 160.515C87.898 160.515 73.8667 146.829 70.488 142.606C67.1092 138.384 57.1842 130.896 54.6467 128.025C52.465 125.227 50.4394 122.311 48.5792 119.29C47.4017 117.682 40.3292 113.062 40.1167 111.347C39.9042 109.632 40.6542 107.167 47.4017 106.635C54.1492 106.102 59.4317 115.539 61.2505 116.396C63.0692 117.254 67.6467 120.346 70.7567 120.455L71.2805 120.432C71.0817 115.652 70.6655 105.647 70.6055 102.746C70.523 98.8911 69.1542 95.2836 69.1542 89.5674C69.1542 83.8511 65.1142 71.4999 64.993 68.0911C64.8717 64.6824 61.243 59.0911 61.118 54.8611C61.0583 54.2159 61.1653 53.5662 61.4288 52.9743C61.6922 52.3823 62.1033 51.8679 62.6226 51.4803C63.1418 51.0928 63.752 50.8451 64.3944 50.761C65.0369 50.6768 65.6902 50.7591 66.2917 50.9999L66.4092 50.9611C65.638 48.5311 65.5167 46.2274 67.4392 44.9536C71.103 42.5236 75.4392 44.0274 78.7905 50.9211L78.9555 50.9999C80.3367 49.5186 83.048 49.6174 84.8105 50.3149C89.5705 52.2036 90.9167 57.6899 92.4892 60.0374C93.8032 62.1709 94.9987 64.375 96.0705 66.6399Z" fill="#FFD997"/>
<path d="M128.331 197.187L122.614 220.287C122.614 220.287 126.864 228.72 128.331 244.302H60.8755C60.8755 244.302 60.728 215.819 78.6918 207.2L83.4255 182.524L86.3268 183.472L125.702 196.326L128.331 197.187Z" fill="white"/>
<path d="M51.4328 75.2711L41.9616 76.6449L38.7003 85.6399L34.4691 77.0561L24.9028 76.7311L31.7578 70.0574L29.1116 60.8586L37.5791 65.3149L45.5091 59.9574L43.8841 69.3861L51.4328 75.2711Z" fill="black"/>
<path d="M125.698 196.33L128.331 197.187L122.614 220.287C122.614 220.287 126.864 228.72 128.331 244.302H60.8755C60.8755 244.302 60.728 215.819 78.6918 207.2L83.4255 182.524L86.3268 183.472L125.702 196.326" stroke="black" stroke-width="0.679185" stroke-linecap="round" stroke-linejoin="round"/>
<path d="M94.7891 186.676L89.7129 204.78" stroke="black" stroke-width="0.679185" stroke-linecap="round" stroke-linejoin="round"/>
<path d="M106.209 190.405L100.622 208.989" stroke="black" stroke-width="0.679185" stroke-linecap="round" stroke-linejoin="round"/>
<path d="M118.179 194.316L113.458 211.67" stroke="black" stroke-width="0.679185" stroke-linecap="round" stroke-linejoin="round"/>
<path d="M86.3217 183.472L87.8892 160.515C87.8892 160.515 73.8667 146.829 70.4892 142.606C67.1117 138.384 57.1842 130.896 54.6467 128.025C52.465 125.227 50.4394 122.311 48.5792 119.29C47.4017 117.682 40.3292 113.062 40.1167 111.347C39.9042 109.632 40.6542 107.167 47.4017 106.635C54.1492 106.102 59.4317 115.539 61.2505 116.396C63.0692 117.254 67.6467 120.346 70.7567 120.455" stroke="black" stroke-width="0.679185" stroke-linecap="round" stroke-linejoin="round"/>
<path d="M96.0702 66.6449C95.7704 66.7597 95.4973 66.9345 95.2675 67.1587C95.0377 67.3828 94.8562 67.6516 94.7341 67.9485C94.612 68.2454 94.5519 68.5641 94.5575 68.885C94.563 69.206 94.6342 69.5224 94.7665 69.8149C95.784 72.6899 98.149 78.0999 98.149 79.3636C98.507 83.0532 99.5678 86.6402 101.274 89.9311C103.474 93.9074 102.966 99.3161 104.486 104.219" stroke="black" stroke-width="0.679185" stroke-linecap="round" stroke-linejoin="round"/>
<path d="M125.698 196.33C125.714 195.979 126.784 175.871 127.091 167.179C127.139 165.736 127.17 164.611 127.17 163.94C127.17 159.19 129.365 158.275 130.093 147.851C130.82 137.427 125.524 114.936 119.855 107.44C119.855 107.44 119.577 106.523 119.105 105.033C117.541 100.065 113.834 88.7438 111.098 84.0113C107.546 77.8613 104.675 69.5238 100.848 67.3375C100.154 66.8691 99.3629 66.5634 98.5344 66.4433C97.7058 66.3231 96.8609 66.3917 96.0625 66.6438" stroke="black" stroke-width="0.679185" stroke-linecap="round" stroke-linejoin="round"/>
<path d="M70.5281 133.335C68.5356 129.974 71.4031 123.014 71.4031 123.014L71.2906 120.432C71.0919 115.652 70.6756 105.647 70.6156 102.746C70.5331 98.8911 69.1644 95.2836 69.1644 89.5673C69.1644 83.8511 65.1144 71.4998 64.9931 68.0911C64.8719 64.6823 61.2431 59.0911 61.1181 54.8611C61.0585 54.2159 61.1655 53.5662 61.4289 52.9742C61.6924 52.3822 62.1034 51.8678 62.6227 51.4803C63.142 51.0927 63.7521 50.845 64.3946 50.7609C65.037 50.6768 65.6903 50.7591 66.2919 50.9998" stroke="black" stroke-width="0.679185" stroke-linecap="round" stroke-linejoin="round"/>
<path d="M76.7903 103.734C76.8728 101.175 77.4034 98.6512 78.3578 96.2762C78.3578 96.2762 76.9191 84.8899 76.0016 79.5262C75.0841 74.1624 70.6403 60.8174 69.0678 57.1512C68.3278 55.4187 67.1066 53.1324 66.4091 50.9499C65.6378 48.5199 65.5166 46.2162 67.4391 44.9424C71.1028 42.5124 75.4391 44.0162 78.7903 50.9099" stroke="black" stroke-width="0.679185" stroke-linecap="round" stroke-linejoin="round"/>
<path d="M96.0705 66.6449C94.9989 64.3779 93.8034 62.1716 92.4892 60.0361C90.9167 57.6849 89.5705 52.2024 84.8105 50.3136C83.048 49.6161 80.3367 49.5174 78.9555 50.9986C77.7905 52.2486 77.5692 54.6149 79.6655 58.6986C84.2505 67.6249 84.7667 71.4174 86.3392 74.2924C87.9117 77.1674 89.6092 88.9486 90.6567 93.7924C91.7042 98.6361 90.9167 100.856 91.7055 103.082" stroke="black" stroke-width="0.679185" stroke-linecap="round" stroke-linejoin="round"/>
<path d="M119.11 105.029C119.11 105.029 120.314 98.0648 121.059 94.8723C121.804 91.6798 122.549 81.8973 124.571 78.3899C126.342 75.3647 127.43 71.9887 127.759 68.4986C127.866 66.0511 130.621 56.9486 131.496 55.1424C131.818 54.4447 132.389 53.8924 133.097 53.5936C133.805 53.2949 134.599 53.2713 135.324 53.5274" stroke="black" stroke-width="0.679185" stroke-linecap="round" stroke-linejoin="round"/>
<path d="M128.188 91.9999C128.938 91.5762 131.695 90.7274 131.695 89.8749C131.695 89.0224 130.945 81.1487 131.695 76.7399C132.445 72.3312 133.718 64.8824 134.247 62.2224C134.54 60.7462 135.122 57.0524 135.728 53.5974C136.072 51.3798 136.536 49.1825 137.118 47.0149C138.295 43.4374 140.729 40.5412 145.09 41.6974" stroke="black" stroke-width="0.679185" stroke-linecap="round" stroke-linejoin="round"/>
<path d="M139.812 87.61C139.812 87.61 139.339 72.6737 139.812 69.3812C140.284 66.0887 142.752 59.265 142.869 55.97C142.964 53.2925 143.449 45.9612 145.268 41.7199C145.605 40.8519 146.108 40.0579 146.749 39.3824C149.807 36.4412 153.337 38.3212 154.159 43.7337C154.654 47.4136 154.78 51.1338 154.534 54.8387" stroke="black" stroke-width="0.679185" stroke-linecap="round" stroke-linejoin="round"/>
<path d="M141.69 87.4448C143.779 87.4015 145.868 87.5467 147.931 87.8786" stroke="black" stroke-width="0.679185" stroke-linecap="round" stroke-linejoin="round"/>
<path d="M154.528 93.1248C154.528 93.1248 152.278 89.5298 150.968 89.1698C150.968 89.1698 151.687 80.4873 152.046 76.7411C152.405 72.9948 152.371 71.1161 152.748 66.3661C153.077 62.2173 153.346 57.4361 154.528 54.8548C154.681 54.5109 154.873 54.1855 155.1 53.8848C156.78 51.7273 162.111 52.1523 162.111 59.4623C162.111 66.7723 162.708 71.8048 162.83 73.9623C162.951 76.1198 162.705 84.8673 162.83 89.0586C162.955 93.2498 164.627 105.567 164.267 110.241" stroke="black" stroke-width="0.679185" stroke-linecap="round" stroke-linejoin="round"/>
<path d="M138.875 124.041C133.739 127.934 131.617 136.431 132.323 141.39" stroke="black" stroke-width="0.679185" stroke-linecap="round" stroke-linejoin="round"/>
<path d="M150.226 124.041C150.344 122.347 153.591 117.055 156.84 116.094C157.453 115.902 158.04 115.637 158.59 115.305C160.732 113.918 162.706 112.29 164.475 110.451C165.259 109.689 165.975 108.97 166.58 108.394C168.988 106.107 168.026 103.582 174.883 101.295C181.739 99.0075 186.791 101.776 186.791 103.582C186.791 105.389 180.513 108.272 179.666 110.2C178.82 112.127 175.098 115.851 173.773 117.779C172.448 119.706 173.023 129.06 167.974 132.91C165.561 134.746 162.903 138.15 159.974 141.394C156.769 144.936 153.248 148.289 149.373 149.199C144.644 150.261 139.688 149.477 135.518 147.006" stroke="black" stroke-width="0.679185" stroke-linecap="round" stroke-linejoin="round"/>
<path d="M127.092 167.175C127.092 167.175 132.314 185.356 135.477 196.3C136.568 200.076 137.417 202.991 137.719 204.005" stroke="black" stroke-width="0.679185" stroke-linecap="round" stroke-linejoin="round"/>
<path d="M159.979 141.39C160.122 141.89 169.498 173.741 172.413 181.376" stroke="black" stroke-width="0.679185" stroke-linecap="round" stroke-linejoin="round"/>
<path d="M132.839 204.009L150.964 244.302H210.464L180.714 180.826C178.423 180.137 175.612 180.561 172.528 181.701C160.224 186.27 143.538 202.272 137.735 204.529C137.45 204.647 137.152 204.731 136.847 204.779C136.169 204.933 135.465 204.937 134.785 204.789C134.106 204.64 133.467 204.344 132.915 203.921C131.178 202.32 131.993 198.932 135.374 196.33" stroke="black" stroke-width="0.679185" stroke-linecap="round" stroke-linejoin="round"/>
<path d="M51.4328 75.2711L41.9616 76.6449L38.7003 85.6399L34.4691 77.0561L24.9028 76.7311L31.7578 70.0574L29.1116 60.8586L37.5791 65.3149L45.5091 59.9574L43.8841 69.3861L51.4328 75.2711Z" stroke="black" stroke-width="0.679185" stroke-linecap="round" stroke-linejoin="round"/>
<path d="M157.537 28.8062L154.904 22.6312L148.213 22.0337L153.275 17.6199L151.777 11.0762L157.537 14.5237L163.297 11.0762L161.799 17.6199L166.862 22.0337L160.17 22.6312L157.537 28.8062Z" stroke="black" stroke-width="0.679185" stroke-linecap="round" stroke-linejoin="round"/>
<path d="M70.124 24.3899L70.1415 19.9674L66.249 17.8624L70.4628 16.5112L71.259 12.1587L73.849 15.7499L78.2315 15.1649L75.6203 18.7337L77.5303 22.7224L73.329 21.3399L70.124 24.3899Z" stroke="black" stroke-width="0.679185" stroke-linecap="round" stroke-linejoin="round"/>
<path d="M189.402 66.9699L191.62 63.8649L189.931 60.4386L193.574 61.5911L196.306 58.9224L196.336 62.7424L199.719 64.5186L196.094 65.7261L195.449 69.4899L193.179 66.4199L189.402 66.9699Z" stroke="black" stroke-width="0.679185" stroke-linecap="round" stroke-linejoin="round"/>
<path d="M63.564 53.4999C66.599 52.6649 67.4002 56.8562 68.3315 59.2499L64.5815 60.4449" stroke="black" stroke-width="0.679185" stroke-linecap="round" stroke-linejoin="round"/>
<path d="M96.9751 68.9224C99.6476 67.7799 100.904 71.5174 102.051 73.5874L99.2013 74.2837" stroke="black" stroke-width="0.679185" stroke-linecap="round" stroke-linejoin="round"/>
<path d="M80.8867 52.9374C83.6542 51.4374 85.3867 55.3461 86.8242 57.4674L82.5742 59.0436" stroke="black" stroke-width="0.679185" stroke-linecap="round" stroke-linejoin="round"/>
<path d="M69.5225 46.8875C74.55 45.2463 74.6587 51.5475 75.59 53.9388L70.965 55.5638" stroke="black" stroke-width="0.679185" stroke-linecap="round" stroke-linejoin="round"/>
<path d="M42.104 111.581C44.144 110.117 46.149 112.282 48.9465 115.159L48.089 116.25" stroke="black" stroke-width="0.679185" stroke-linecap="round" stroke-linejoin="round"/>
<path d="M184.674 104.162C181.374 104.162 178.069 107.965 178.069 107.965L178.979 108.541" stroke="black" stroke-width="0.679185" stroke-linecap="round" stroke-linejoin="round"/>
<path d="M151.335 116.817C153.675 115.987 156.117 115.479 158.594 115.305" stroke="black" stroke-width="0.679185" stroke-linecap="round" stroke-linejoin="round"/>
</g>
<defs>
<filter id="filter0_i_288_756" x="0" y="0" width="250" height="254" filterUnits="userSpaceOnUse" color-interpolation-filters="sRGB">
<feFlood flood-opacity="0" result="BackgroundImageFix"/>
<feBlend mode="normal" in="SourceGraphic" in2="BackgroundImageFix" result="shape"/>
<feColorMatrix in="SourceAlpha" type="matrix" values="0 0 0 0 0 0 0 0 0 0 0 0 0 0 0 0 0 0 127 0" result="hardAlpha"/>
<feOffset dy="4"/>
<feGaussianBlur stdDeviation="2"/>
<feComposite in2="hardAlpha" operator="arithmetic" k2="-1" k3="1"/>
<feColorMatrix type="matrix" values="0 0 0 0 0 0 0 0 0 0 0 0 0 0 0 0 0 0 0.25 0"/>
<feBlend mode="normal" in2="shape" result="effect1_innerShadow_288_756"/>
</filter>
</defs>
</svg>
