<svg width="250" height="250" viewBox="0 0 250 250" fill="none" xmlns="http://www.w3.org/2000/svg">
<g filter="url(#filter0_i_288_904)">
<path d="M229.481 170.666L243.091 191.96L220.981 179.375C213.828 185.2 205.284 189.068 196.188 190.6C187.091 192.133 177.752 191.279 169.084 188.12C160.417 184.961 152.717 179.607 146.74 172.581C140.762 165.554 136.71 157.097 134.981 148.035C138.271 142.126 140.221 135.566 140.693 128.819L140.809 128.829C147.809 124.356 153.798 118.469 158.389 111.545C162.981 104.622 166.075 96.8155 167.473 88.6263C178.328 84.2729 190.314 83.6113 201.583 86.7435C212.851 89.8757 222.777 96.6277 229.829 105.959C236.88 115.289 240.667 126.681 240.604 138.377C240.542 150.072 236.634 161.423 229.483 170.678L229.481 170.666ZM201.5 109.024C201.746 107.973 201.776 106.884 201.59 105.822C201.403 104.76 201.004 103.746 200.416 102.842C199.828 101.938 199.063 101.162 198.167 100.561C197.271 99.9601 196.264 99.5465 195.204 99.345L192.361 98.8075C191.302 98.6052 190.213 98.6193 189.159 98.849C188.105 99.0787 187.109 99.5193 186.23 100.144C185.351 100.769 184.608 101.565 184.045 102.485C183.482 103.405 183.111 104.429 182.954 105.496L177.273 143.121C177.214 143.509 177.185 143.901 177.186 144.294C177.189 146.256 177.912 148.148 179.218 149.612C180.524 151.076 182.323 152.008 184.272 152.233C186.221 152.457 188.184 151.957 189.789 150.829C191.393 149.7 192.527 148.021 192.975 146.111L201.5 109.024ZM191.833 167.954C192.879 162.443 189.431 157.375 183.191 156.186C176.854 154.984 171.781 158.436 170.734 163.936C169.728 169.236 173.18 174.311 179.516 175.511C185.75 176.706 190.829 173.25 191.836 167.954H191.833Z" fill="#FFD997"/>
<path d="M119.595 94.25C126.018 99.4209 130.693 106.444 132.985 114.366C135.277 122.287 135.074 130.722 132.403 138.524L132.041 138.399C123.724 142.546 114.583 144.775 105.291 144.921C84.0833 144.921 64.5408 134.478 55.2908 118.765L54.8633 118.69C56.1746 111.083 59.6527 104.015 64.8803 98.3344C70.1079 92.6541 76.8631 88.6023 84.3358 86.665L85.0458 88.7338C85.5283 90.1525 89.4645 101.588 90.4008 102.645C91.8578 104.294 93.7738 105.472 95.9036 106.026C98.0334 106.58 100.28 106.487 102.356 105.757C104.433 105.027 106.244 103.695 107.559 101.93C108.874 100.165 109.632 98.0483 109.737 95.85C109.216 93.062 108.524 90.3088 107.663 87.6063C111.991 89.1226 116.026 91.3698 119.595 94.25ZM111.15 134.835C119.202 132.314 122.987 125.085 120.838 118.231C118.608 111.115 111.376 107.335 103.323 109.856C95.1295 112.424 91.3508 119.651 93.5733 126.768C95.7233 133.625 102.956 137.399 111.15 134.833V134.835Z" fill="#FFD997"/>
<path d="M167.471 88.615C166.074 96.8042 162.98 104.611 158.388 111.534C153.796 118.457 147.808 124.344 140.808 128.817L140.691 128.807C141.377 119.129 139.012 109.479 133.93 101.213C128.848 92.9479 121.303 86.4831 112.356 82.7275C123.153 77.3725 128.543 67.6687 124.894 55.5137C123.013 49.5226 118.942 44.4613 113.493 41.3405C108.045 38.2198 101.619 37.2692 95.5 38.6787C82.355 41.5837 74.685 48.5837 72.1375 56.9387C71.7326 58.3048 71.6519 59.7464 71.9017 61.1491C72.1515 62.5518 72.725 63.8769 73.5766 65.0191C74.4283 66.1614 75.5345 67.0892 76.8075 67.7291C78.0806 68.3689 79.4852 68.7031 80.91 68.705C81.8528 68.7018 82.7896 68.556 83.6888 68.2725C85.252 67.8036 86.6579 66.9177 87.7555 65.71C88.8532 64.5022 89.601 63.0183 89.9188 61.4175C90.4375 58.5687 92.4963 56.335 96.0638 55.2175C100.901 53.7025 104.948 55.8162 106.498 60.7637C106.866 61.8381 107.062 62.9642 107.076 64.1C107.076 69.975 101.016 73.35 92.2188 76.1087C91.3509 76.38 90.547 76.8245 89.8558 77.4154C89.1647 78.0062 88.6005 78.7311 88.1975 79.5462C80.6155 80.5761 73.4056 83.4643 67.2094 87.9537C61.0132 92.4432 56.0229 98.3947 52.6825 105.279L52.39 105.139C47.4303 96.8398 44.9275 87.3037 45.1725 77.6387C45.1668 70.0377 46.7152 62.5158 49.7225 55.535L28.75 34.4212L57.2875 42.8062C63.2034 35.3625 70.736 29.3629 79.3144 25.2619C87.8927 21.1609 97.292 19.0661 106.8 19.1362C140.833 19.1362 168.425 45.3325 168.425 77.6437C168.429 81.3217 168.11 84.9929 167.471 88.615Z" fill="#FFD997"/>
<path d="M43.0098 178.723L45.4165 175.737L55.8278 184.129L53.4211 187.115L43.0098 178.723Z" fill="#81F8F8"/>
<path d="M195.208 99.345C196.267 99.5465 197.275 99.9601 198.171 100.561C199.066 101.162 199.831 101.938 200.419 102.842C201.007 103.746 201.407 104.76 201.593 105.822C201.779 106.884 201.749 107.973 201.504 109.024L192.979 146.111C192.531 148.021 191.397 149.7 189.792 150.829C188.187 151.957 186.224 152.457 184.275 152.233C182.326 152.008 180.528 151.076 179.221 149.612C177.915 148.148 177.192 146.256 177.19 144.294C177.188 143.901 177.217 143.509 177.276 143.121L182.958 105.496C183.114 104.429 183.485 103.405 184.048 102.485C184.611 101.565 185.355 100.769 186.234 100.144C187.113 99.5192 188.109 99.0787 189.163 98.8489C190.216 98.6192 191.306 98.6051 192.365 98.8075L195.208 99.345Z" fill="white"/>
<path d="M183.195 156.186C189.435 157.375 192.882 162.443 191.836 167.954C190.828 173.254 185.756 176.704 179.52 175.518C173.183 174.315 169.731 169.243 170.738 163.943C171.785 158.431 176.857 154.984 183.195 156.186Z" fill="white"/>
<path d="M84.3392 86.6675C75.0651 89.0931 66.9704 94.7686 61.5291 102.661C56.0877 110.553 53.6616 120.137 54.6925 129.667C55.7233 139.198 60.1425 148.041 67.1455 154.587C74.1485 161.133 83.2695 164.947 92.8478 165.333C102.426 165.72 111.825 162.654 119.332 156.693C126.84 150.732 131.957 142.274 133.753 132.857C135.548 123.441 133.902 113.693 129.114 105.388C124.326 97.0829 116.715 90.7736 107.667 87.6087C100.159 84.9747 92.0348 84.6469 84.3392 86.6675ZM123.51 89.375C132.027 96.2308 137.848 105.874 139.946 116.604C142.045 127.334 140.286 138.46 134.98 148.019C131.832 153.673 127.537 158.607 122.37 162.503C117.203 166.4 111.278 169.173 104.976 170.645C98.674 172.117 92.1338 172.256 85.7752 171.051C79.4166 169.847 73.3801 167.326 68.053 163.651C67.1321 163.016 66.228 162.342 65.3405 161.627C64.453 160.913 63.5988 160.172 62.778 159.402C53.9735 151.217 48.6919 139.932 48.0468 127.927C47.4018 115.923 51.4437 104.137 59.3204 95.0544C67.197 85.9723 78.2927 80.3038 90.2678 79.2443C102.243 78.1848 114.162 81.8169 123.51 89.375Z" fill="#81F8F8"/>
<path d="M124.894 55.5138C128.542 67.6688 123.152 77.3725 112.356 82.7275C104.73 79.5297 96.3869 78.4329 88.1936 79.5513C88.5966 78.7362 89.1608 78.0113 89.852 77.4204C90.5431 76.8296 91.347 76.3851 92.2149 76.1138C101.012 73.3563 107.072 69.9738 107.072 64.105C107.058 62.9693 106.862 61.8431 106.494 60.7688C104.944 55.8213 100.897 53.7075 96.0599 55.2225C92.4924 56.34 90.4349 58.5738 89.9149 61.4225C89.5971 63.0233 88.8493 64.5073 87.7516 65.715C86.654 66.9228 85.2481 67.8087 83.6849 68.2775C82.7857 68.5611 81.8489 68.7069 80.9061 68.71C79.4813 68.7081 78.0767 68.374 76.8036 67.7342C75.5306 67.0943 74.4244 66.1664 73.5728 65.0242C72.7211 63.8819 72.1476 62.5568 71.8978 61.1541C71.648 59.7514 71.7287 58.3098 72.1336 56.9438C74.6811 48.5888 82.3511 41.5888 95.4961 38.6838C101.615 37.273 108.041 38.2223 113.49 41.3422C118.94 44.4621 123.012 49.5228 124.894 55.5138Z" fill="white"/>
<path d="M120.838 118.229C122.986 125.079 119.201 132.311 111.149 134.832C102.955 137.399 95.7226 133.62 93.5789 126.77C91.3501 119.654 95.1289 112.426 103.329 109.859C111.375 107.332 118.608 111.112 120.838 118.229Z" fill="white"/>
<path d="M107.666 87.6088C108.527 90.3113 109.219 93.0645 109.74 95.8525C109.632 98.1147 108.831 100.289 107.447 102.082C106.063 103.874 104.161 105.198 102 105.875C99.9616 106.515 97.7816 106.55 95.7237 105.977C93.6658 105.403 91.8183 104.246 90.4048 102.644C89.4686 101.586 85.5298 90.1513 85.0498 88.7325L84.3398 86.6638C92.0373 84.6623 100.156 84.9912 107.666 87.6088Z" fill="white"/>
<path d="M68.0527 163.661L67.9827 163.766L53.2714 182.041L47.9814 177.777L62.6927 159.5L62.7777 159.409C63.5985 160.179 64.4527 160.92 65.3402 161.634C66.2277 162.347 67.1319 163.023 68.0527 163.661Z" fill="#81F8F8"/>
<path d="M7.06006 223.344L42.9862 178.722L53.4024 187.108L17.4762 231.731L7.06006 223.344Z" fill="black"/>
<path d="M7.06847 223.35L17.4822 231.735C16.3679 233.108 14.7547 233.984 12.9959 234.171C11.2371 234.357 9.47604 233.839 8.09845 232.73C6.72086 231.621 5.83897 230.011 5.64592 228.253C5.45287 226.495 5.9644 224.732 7.06847 223.35Z" fill="#81F8F8"/>
<path d="M134.981 148.029C131.833 153.683 127.537 158.617 122.37 162.513C117.203 166.41 111.278 169.183 104.976 170.655C98.6742 172.127 92.134 172.266 85.7754 171.061C79.4168 169.857 73.3803 167.336 68.0532 163.661C67.1323 163.026 66.2282 162.352 65.3407 161.637C64.4532 160.923 63.599 160.182 62.7782 159.412C56.4275 153.481 51.871 145.885 49.6281 137.49C47.3852 129.095 47.5461 120.238 50.0925 111.93C52.6389 103.622 57.4683 96.1966 64.0302 90.5001C70.5922 84.8036 78.6226 81.0653 87.2061 79.7114C95.7896 78.3575 104.581 79.4424 112.578 82.8426C120.574 86.2427 127.455 91.8212 132.435 98.9422C137.415 106.063 140.294 114.44 140.744 123.118C141.194 131.796 139.197 140.426 134.981 148.024" stroke="black" stroke-width="0.980065" stroke-linecap="round" stroke-linejoin="round"/>
<path d="M132.403 138.521C129.641 146.611 124.372 153.609 117.361 158.5C110.35 163.39 101.962 165.918 93.4166 165.716C84.8709 165.514 76.6122 162.592 69.8405 157.375C63.0689 152.158 58.1369 144.918 55.7611 136.707C53.3854 128.496 53.6896 119.741 56.6297 111.714C59.5698 103.687 64.9925 96.8073 72.11 92.0732C79.2275 87.3392 87.6691 84.9978 96.2082 85.3892C104.747 85.7807 112.939 88.8846 119.594 94.25C126.023 99.4162 130.702 106.439 132.994 114.362C135.286 122.284 135.08 130.72 132.403 138.521Z" stroke="black" stroke-width="0.980065" stroke-linecap="round" stroke-linejoin="round"/>
<path d="M67.9827 163.766L53.2714 182.041L47.9814 177.778L62.6927 159.504" stroke="black" stroke-width="0.980065" stroke-linecap="round" stroke-linejoin="round"/>
<path d="M17.4822 231.735C16.3679 233.108 14.7547 233.984 12.9959 234.171C11.2371 234.357 9.47604 233.839 8.09845 232.73C6.72086 231.621 5.83897 230.011 5.64592 228.253C5.45287 226.495 5.9644 224.732 7.06847 223.35L42.9935 178.725L45.3997 175.741L55.8172 184.125L53.411 187.11L17.4822 231.735Z" stroke="black" stroke-width="0.980065" stroke-linecap="round" stroke-linejoin="round"/>
<path d="M7.06885 223.35L17.4826 231.735" stroke="black" stroke-width="0.980065" stroke-linecap="round" stroke-linejoin="round"/>
<path d="M42.9937 178.724L53.4112 187.109" stroke="black" stroke-width="0.980065" stroke-linecap="round" stroke-linejoin="round"/>
<path d="M57.2876 42.8013C63.204 35.3585 70.7368 29.3598 79.3151 25.2597C87.8935 21.1596 97.2925 19.0655 106.8 19.1363C140.833 19.1363 168.425 45.3325 168.425 77.6438C168.429 81.3218 168.109 84.993 167.469 88.615C166.071 96.8042 162.977 104.611 158.386 111.534C153.794 118.457 147.806 124.344 140.805 128.818" stroke="black" stroke-width="0.980065" stroke-linecap="round" stroke-linejoin="round"/>
<path d="M52.3902 105.139C47.4304 96.8398 44.9276 87.3038 45.1727 77.6388C45.167 70.0378 46.7154 62.5158 49.7227 55.535" stroke="black" stroke-width="0.980065" stroke-linecap="round" stroke-linejoin="round"/>
<path d="M132.041 138.401C123.724 142.548 114.583 144.777 105.291 144.924C84.083 144.924 64.5405 134.48 55.2905 118.768" stroke="black" stroke-width="0.980065" stroke-linecap="round" stroke-linejoin="round"/>
<path d="M57.2877 42.8063L28.7515 34.4213L49.7277 55.54" stroke="black" stroke-width="0.980065" stroke-linecap="round" stroke-linejoin="round"/>
<path d="M220.981 179.369L243.091 191.96L229.481 170.666" stroke="black" stroke-width="0.980065" stroke-linecap="round" stroke-linejoin="round"/>
<path d="M220.981 179.375C213.828 185.2 205.284 189.067 196.188 190.6C187.091 192.133 177.752 191.279 169.084 188.12C160.417 184.961 152.717 179.607 146.74 172.581C140.762 165.554 136.71 157.097 134.981 148.035" stroke="black" stroke-width="0.980065" stroke-linecap="round" stroke-linejoin="round"/>
<path d="M167.467 88.615C178.322 84.2608 190.309 83.5985 201.578 86.7302C212.847 89.862 222.773 96.6139 229.826 105.945C236.878 115.276 240.665 126.668 240.603 138.364C240.541 150.06 236.633 161.411 229.482 170.666" stroke="black" stroke-width="0.980065" stroke-linecap="round" stroke-linejoin="round"/>
<path d="M107.666 87.6088C108.527 90.3113 109.219 93.0645 109.74 95.8526C109.632 98.1148 108.831 100.289 107.447 102.082C106.063 103.874 104.161 105.198 102 105.875C99.9616 106.515 97.7816 106.551 95.7237 105.977C93.6658 105.404 91.8183 104.246 90.4048 102.644C89.4686 101.586 85.5298 90.1513 85.0498 88.7326L84.3398 86.6638V86.6538" stroke="black" stroke-width="0.980065" stroke-linecap="round" stroke-linejoin="round"/>
<path d="M111.149 134.833C102.955 137.399 95.7226 133.62 93.5789 126.77C91.3501 119.654 95.1289 112.426 103.329 109.859C111.381 107.333 118.614 111.109 120.844 118.234C122.986 125.079 119.201 132.311 111.149 134.833Z" stroke="black" stroke-width="0.980065" stroke-linecap="round" stroke-linejoin="round"/>
<path d="M88.1936 79.5463C88.5966 78.7312 89.1608 78.0063 89.852 77.4155C90.5431 76.8246 91.347 76.3801 92.2149 76.1088C101.012 73.3513 107.072 69.9688 107.072 64.1001C107.058 62.9643 106.862 61.8382 106.494 60.7638C104.944 55.8163 100.897 53.7026 96.0599 55.2176C92.4924 56.3351 90.4349 58.5688 89.9149 61.4176C89.5971 63.0183 88.8493 64.5023 87.7516 65.7101C86.654 66.9178 85.2481 67.8037 83.6849 68.2726C82.7857 68.5561 81.8489 68.7019 80.9061 68.7051C79.4813 68.7032 78.0767 68.369 76.8036 67.7292C75.5306 67.0893 74.4244 66.1614 73.5728 65.0192C72.7211 63.877 72.1476 62.5518 71.8978 61.1492C71.648 59.7465 71.7287 58.3048 72.1336 56.9388C74.6811 48.5838 82.3511 41.5838 95.4961 38.6788C101.616 37.2683 108.042 38.2183 113.492 41.3391C118.941 44.46 123.013 49.5219 124.894 55.5138C128.542 67.6688 123.152 77.3726 112.356 82.7276" stroke="black" stroke-width="0.980065" stroke-linecap="round" stroke-linejoin="round"/>
<path d="M179.52 175.518C173.184 174.315 169.731 169.243 170.738 163.943C171.785 158.431 176.863 154.984 183.195 156.193C189.435 157.381 192.883 162.449 191.836 167.96C190.829 173.25 185.75 176.706 179.52 175.518Z" stroke="black" stroke-width="0.980065" stroke-linecap="round" stroke-linejoin="round"/>
<path d="M192.365 98.8075L195.208 99.345C196.267 99.5465 197.275 99.9601 198.171 100.561C199.066 101.162 199.831 101.938 200.419 102.842C201.007 103.746 201.407 104.76 201.593 105.822C201.779 106.884 201.749 107.973 201.504 109.024L192.979 146.111C192.531 148.021 191.397 149.7 189.792 150.829C188.187 151.957 186.224 152.457 184.275 152.233C182.326 152.008 180.528 151.076 179.221 149.612C177.915 148.148 177.192 146.256 177.19 144.294C177.188 143.901 177.217 143.509 177.276 143.121L182.958 105.496C183.114 104.429 183.485 103.405 184.048 102.485C184.611 101.565 185.355 100.769 186.234 100.144C187.113 99.5192 188.109 99.0787 189.163 98.8489C190.216 98.6192 191.306 98.6051 192.365 98.8075Z" stroke="black" stroke-width="0.980065" stroke-linecap="round" stroke-linejoin="round"/>
<path d="M139 17.8438C160.47 17.8464 181.324 25.0173 198.255 38.219C215.186 51.4208 227.224 69.8976 232.46 90.7187" stroke="black" stroke-width="0.980065" stroke-linecap="round" stroke-linejoin="round"/>
<path d="M177.195 202.66C159.659 210.216 140.275 212.396 121.499 208.923C102.722 205.45 85.3998 196.481 71.7266 183.152" stroke="black" stroke-width="0.980065" stroke-linecap="round" stroke-linejoin="round"/>
<path d="M223.065 82.9737L232.864 91.8112L235.617 78.9075" stroke="black" stroke-width="0.980065" stroke-linecap="round" stroke-linejoin="round"/>
<path d="M83.8354 184.99L70.8667 182.554L75.2392 195" stroke="black" stroke-width="0.980065" stroke-linecap="round" stroke-linejoin="round"/>
</g>
<defs>
<filter id="filter0_i_288_904" x="0" y="0" width="250" height="254" filterUnits="userSpaceOnUse" color-interpolation-filters="sRGB">
<feFlood flood-opacity="0" result="BackgroundImageFix"/>
<feBlend mode="normal" in="SourceGraphic" in2="BackgroundImageFix" result="shape"/>
<feColorMatrix in="SourceAlpha" type="matrix" values="0 0 0 0 0 0 0 0 0 0 0 0 0 0 0 0 0 0 127 0" result="hardAlpha"/>
<feOffset dy="4"/>
<feGaussianBlur stdDeviation="2"/>
<feComposite in2="hardAlpha" operator="arithmetic" k2="-1" k3="1"/>
<feColorMatrix type="matrix" values="0 0 0 0 0 0 0 0 0 0 0 0 0 0 0 0 0 0 0.25 0"/>
<feBlend mode="normal" in2="shape" result="effect1_innerShadow_288_904"/>
</filter>
</defs>
</svg>
