<svg width="250" height="250" viewBox="0 0 250 250" fill="none" xmlns="http://www.w3.org/2000/svg">
<g filter="url(#filter0_i_288_998)">
<path d="M40.5249 185.449H69.9662V239.512H40.5249V185.449Z" fill="white"/>
<path d="M85.8687 174.489H115.31V239.515H85.8687V174.489Z" fill="white"/>
<path d="M131.214 147.862H160.655V239.514H131.214V147.862Z" fill="white"/>
<path d="M176.559 110.335H206V239.512H176.559V110.335Z" fill="white"/>
<path d="M238.949 238.946L230.085 234.785C230.01 234.74 229.927 234.712 229.84 234.701C229.754 234.691 229.666 234.698 229.583 234.724C229.499 234.749 229.422 234.792 229.356 234.849C229.29 234.906 229.237 234.976 229.2 235.055C229.162 235.133 229.142 235.219 229.14 235.306C229.138 235.394 229.154 235.48 229.187 235.561C229.221 235.641 229.27 235.714 229.334 235.774C229.397 235.834 229.472 235.88 229.554 235.91L235.883 238.881H214.223L213.25 128.6C213.25 128.43 213.676 129.651 206.625 110.475V110.339C206.625 110.173 206.559 110.014 206.442 109.897C206.325 109.779 206.166 109.714 206 109.714H176.559C176.393 109.714 176.234 109.779 176.117 109.897C176 110.014 175.934 110.173 175.934 110.339V238.889H168.965C168.258 181.571 167.965 160.594 167.93 160.532C160.974 147.15 161.208 147.367 160.82 147.262C160.695 147.227 162.805 147.24 131.214 147.24C131.048 147.24 130.889 147.306 130.772 147.423C130.655 147.54 130.589 147.699 130.589 147.865V238.889H123.706C122.994 197.957 122.681 183.389 122.625 183.31L115.909 174.12C115.843 174.03 115.754 173.96 115.652 173.916C115.55 173.872 115.438 173.856 115.328 173.87H85.8688C85.7031 173.87 85.5441 173.936 85.4269 174.053C85.3097 174.17 85.2438 174.329 85.2438 174.495V238.892H78.2076L77.2501 193.054C77.2466 192.906 77.1912 192.765 77.0938 192.655L70.5388 185.196C70.468 185.051 70.3494 184.934 70.2028 184.866C70.0562 184.798 69.8907 184.782 69.7338 184.821H40.5238C40.3581 184.821 40.1991 184.887 40.0819 185.004C39.9647 185.121 39.8988 185.28 39.8988 185.446V238.884H17.2963L23.6251 235.912C23.7071 235.883 23.7821 235.837 23.8453 235.777C23.9084 235.716 23.9582 235.644 23.9916 235.563C24.025 235.483 24.0411 235.396 24.039 235.309C24.0369 235.222 24.0166 235.136 23.9793 235.057C23.9421 234.978 23.8888 234.908 23.8228 234.851C23.7569 234.794 23.6797 234.752 23.5963 234.726C23.5129 234.701 23.4251 234.693 23.3386 234.704C23.2521 234.714 23.1687 234.743 23.0938 234.787L14.2301 238.949C14.1224 238.999 14.0312 239.079 13.9674 239.179C13.9035 239.28 13.8696 239.396 13.8696 239.515C13.8696 239.634 13.9035 239.75 13.9674 239.85C14.0312 239.951 14.1224 240.031 14.2301 240.081C24.1938 244.706 23.4576 244.377 23.6601 244.377C23.8027 244.378 23.9412 244.329 24.0526 244.24C24.1639 244.151 24.2414 244.027 24.2722 243.887C24.303 243.748 24.2853 243.602 24.2219 243.475C24.1585 243.347 24.0533 243.245 23.9238 243.185L17.3351 240.139H235.835L229.248 243.185C229.097 243.254 228.98 243.381 228.923 243.537C228.866 243.692 228.873 243.864 228.943 244.015C229.012 244.165 229.139 244.282 229.294 244.339C229.45 244.396 229.622 244.389 229.773 244.32L238.94 240.081C239.049 240.032 239.141 239.953 239.206 239.853C239.272 239.752 239.307 239.636 239.308 239.516C239.309 239.397 239.275 239.28 239.212 239.179C239.148 239.078 239.057 238.997 238.949 238.946ZM177.184 110.961H205.333V238.886H177.184V110.961ZM131.839 148.487H160.03V238.886H131.839V148.487ZM86.4938 175.112H114.686V238.885H86.4938V175.112ZM41.1488 186.072H69.3113V238.885H41.1488V186.072Z" fill="black"/>
<path fill-rule="evenodd" clip-rule="evenodd" d="M11.895 174.921C12.8688 174.952 153.981 142.977 209.757 57.1861L222.861 63.9999L219 15.3286L172.976 41.1474L189.125 48.0061C189.125 48.0061 135.948 134.549 11.895 174.921Z" fill="black"/>
<path d="M11.7016 174.326C61.778 158.196 107.782 131.444 146.569 95.8999C172.319 72.0474 185.803 52.0062 188.204 48.2937L172.733 41.7224C172.624 41.6774 172.53 41.6026 172.462 41.5065C172.394 41.4105 172.354 41.2971 172.348 41.1796C172.341 41.062 172.368 40.945 172.425 40.842C172.482 40.739 172.567 40.6542 172.67 40.5974L218.692 14.7787C218.783 14.7273 218.887 14.6999 218.992 14.699C219.097 14.6981 219.201 14.7238 219.293 14.7737C219.386 14.8235 219.464 14.8959 219.522 14.9842C219.579 15.0725 219.613 15.1738 219.62 15.2787L223.485 63.9437C223.494 64.055 223.473 64.1666 223.425 64.2671C223.376 64.3675 223.301 64.4531 223.208 64.5148C223.115 64.5766 223.007 64.6123 222.896 64.6182C222.784 64.6242 222.673 64.6002 222.574 64.5487L209.973 57.9999C155 141.889 18.4916 174.342 12.0954 175.514C12.0174 175.54 11.9351 175.55 11.8532 175.544C11.7712 175.538 11.6913 175.516 11.6179 175.479C11.5444 175.442 11.479 175.391 11.4253 175.329C11.3716 175.267 11.3306 175.195 11.3047 175.117C11.2789 175.039 11.2686 174.957 11.2746 174.875C11.2805 174.793 11.3026 174.713 11.3394 174.639C11.3763 174.566 11.4272 174.5 11.4894 174.447C11.5515 174.393 11.6236 174.352 11.7016 174.326ZM174.393 41.0687L189.373 47.4312C189.456 47.4664 189.53 47.5191 189.59 47.5856C189.651 47.6521 189.696 47.7308 189.724 47.8165C189.751 47.9022 189.759 47.9927 189.748 48.082C189.737 48.1712 189.707 48.2571 189.66 48.3337C189.528 48.5512 175.99 70.3474 147.457 96.7824C112.278 129.06 71.1154 154.131 26.2954 170.579C63.7804 160.004 164.295 125.966 209.234 56.8462C209.319 56.716 209.449 56.6219 209.599 56.5824C209.749 56.5429 209.909 56.5607 210.047 56.6324L222.149 62.9199L218.452 16.3512L174.393 41.0687Z" fill="black"/>
</g>
<defs>
<filter id="filter0_i_288_998" x="0" y="0" width="250" height="254" filterUnits="userSpaceOnUse" color-interpolation-filters="sRGB">
<feFlood flood-opacity="0" result="BackgroundImageFix"/>
<feBlend mode="normal" in="SourceGraphic" in2="BackgroundImageFix" result="shape"/>
<feColorMatrix in="SourceAlpha" type="matrix" values="0 0 0 0 0 0 0 0 0 0 0 0 0 0 0 0 0 0 127 0" result="hardAlpha"/>
<feOffset dy="4"/>
<feGaussianBlur stdDeviation="2"/>
<feComposite in2="hardAlpha" operator="arithmetic" k2="-1" k3="1"/>
<feColorMatrix type="matrix" values="0 0 0 0 0 0 0 0 0 0 0 0 0 0 0 0 0 0 0.25 0"/>
<feBlend mode="normal" in2="shape" result="effect1_innerShadow_288_998"/>
</filter>
</defs>
</svg>
